<svg xmlns="http://www.w3.org/2000/svg" xmlns:xlink="http://www.w3.org/1999/xlink" width="800" zoomAndPan="magnify" viewBox="0 0 600 225" height="300" preserveAspectRatio="xMidYMid meet" version="1.0"><defs><clipPath id="3cd372ac9a"><path d="M 307 67.5 L 446 67.5 L 446 168 L 307 168 Z M 307 67.5 " clip-rule="nonzero"/></clipPath><clipPath id="5c147d875a"><path d="M 307 76 L 447.867188 76 L 447.867188 174 L 307 174 Z M 307 76 " clip-rule="nonzero"/></clipPath><clipPath id="760c8b4b24"><path d="M 456 67.5 L 595 67.5 L 595 168 L 456 168 Z M 456 67.5 " clip-rule="nonzero"/></clipPath><clipPath id="cea40b7db2"><path d="M 456 76 L 596.863281 76 L 596.863281 174 L 456 174 Z M 456 76 " clip-rule="nonzero"/></clipPath><clipPath id="9391732d03"><path d="M 158 67.5 L 297 67.5 L 297 168 L 158 168 Z M 158 67.5 " clip-rule="nonzero"/></clipPath><clipPath id="5215897ca9"><path d="M 158 76 L 298.871094 76 L 298.871094 174 L 158 174 Z M 158 76 " clip-rule="nonzero"/></clipPath><clipPath id="f677f4708a"><path d="M 9 67.5 L 148 67.5 L 148 168 L 9 168 Z M 9 67.5 " clip-rule="nonzero"/></clipPath><clipPath id="1fd6ca1ef4"><path d="M 9 76 L 149.765625 76 L 149.765625 174 L 9 174 Z M 9 76 " clip-rule="nonzero"/></clipPath></defs><path fill="#3e4c60" d="M 341.910156 102.421875 L 409.890625 102.421875 L 409.890625 165.265625 L 341.910156 165.265625 Z M 341.910156 102.421875 " fill-opacity="1" fill-rule="nonzero"/><path fill="#cd5d48" d="M 363.976562 161.21875 C 360.910156 159.039062 359.023438 155.472656 358.945312 151.5 C 358.902344 149.554688 358.394531 146.3125 359.558594 144.710938 C 359.65625 145.746094 360.460938 146.871094 361.355469 147.398438 C 360.734375 143.578125 363.152344 141.019531 365.128906 137.957031 C 367.25 134.664062 367.792969 131.367188 366.75 127.695312 C 368.601562 128.394531 368.949219 130.164062 370.105469 131.410156 C 371.046875 128.144531 370.953125 123.59375 370.542969 120.324219 C 370.195312 117.535156 369.976562 114.539062 369.355469 111.867188 C 373.332031 115.59375 378.023438 118.089844 381.0625 122.714844 C 382.171875 124.402344 382.714844 126.488281 383.167969 128.460938 C 383.425781 129.566406 383.164062 131.078125 383.644531 132.042969 C 385.820312 130.585938 386.902344 127.746094 389.726562 127.066406 C 387.398438 129.546875 387.992188 133.382812 387.992188 136.5 C 387.992188 139.875 387.363281 143.101562 387.332031 146.433594 C 388.902344 144.378906 390.242188 142.066406 392.179688 140.347656 C 392.753906 147.765625 394.304688 155.035156 388.484375 160.6875 C 385.980469 163.117188 382.925781 163.0625 379.609375 163.367188 C 375.804688 163.714844 371.574219 163.773438 367.789062 163.328125 C 365.855469 163.097656 363.476562 162.101562 363.976562 161.21875 Z M 363.976562 161.21875 " fill-opacity="1" fill-rule="nonzero"/><path fill="#f7d96a" d="M 380.816406 162.191406 C 377.976562 162.992188 374.242188 163.488281 371.214844 163.195312 C 369.835938 163.0625 365.632812 161.058594 364.207031 158.851562 C 362.808594 156.683594 361.027344 153.324219 361.996094 150.789062 C 362.742188 153.214844 365.085938 154.25 367.472656 154.007812 C 367.082031 150.355469 367.101562 146.984375 367.925781 143.332031 C 368.167969 142.261719 368.8125 139.074219 369.84375 138.554688 C 371.136719 137.90625 371.320312 139.757812 372.519531 140 C 374.289062 140.355469 375.570312 133.855469 375.859375 132.28125 C 376.230469 130.261719 376.4375 127.179688 375.988281 125.175781 C 375.738281 124.054688 374.945312 123.046875 374.964844 121.917969 C 376.136719 122.277344 376.898438 124.007812 377.488281 125.113281 C 378.796875 127.578125 380.164062 130.132812 381.226562 132.714844 C 382.722656 136.339844 381.445312 140.207031 382.507812 143.660156 C 382.898438 142.503906 383.3125 141.273438 384.257812 140.433594 C 384.0625 143.605469 380.960938 150.042969 385.019531 152.238281 C 385.859375 151.503906 386.355469 150.460938 387.238281 149.769531 C 388.394531 154.390625 385.730469 160.800781 380.816406 162.191406 Z M 371.8125 135.222656 C 372.917969 134.308594 372.992188 131.683594 372.539062 129.96875 C 371.355469 131.078125 370.253906 134.148438 371.8125 135.222656 Z M 372.335938 117.75 L 372.335938 117.234375 C 372.335938 118.667969 372.265625 120.125 372.371094 121.546875 C 373.238281 120.632812 374.167969 118.238281 372.335938 117.75 Z M 385.625 138.941406 C 386.082031 138.117188 386.507812 135.222656 384.929688 134.65625 C 383.433594 135.59375 384.617188 138.070312 385.625 138.941406 Z M 385.316406 135.890625 Z M 385.316406 135.890625 " fill-opacity="1" fill-rule="nonzero"/><g clip-path="url(#3cd372ac9a)"><path fill="#c59163" d="M 441.199219 77.449219 L 445.886719 77.449219 L 445.886719 67.929688 C 445.886719 67.929688 376.417969 68.128906 372.628906 67.929688 C 364.917969 67.519531 312.042969 68.128906 308.390625 67.929688 C 306.125 67.800781 308.390625 77.449219 308.390625 77.449219 L 313.667969 77.449219 L 313.667969 81.5 L 316.507812 81.5 L 316.507812 161.703125 L 311.03125 161.703125 L 311.03125 167.992188 L 444.0625 167.992188 L 443.046875 162.324219 L 438.582031 161.308594 C 438.582031 161.308594 438.378906 120.1875 438.582031 117.554688 C 438.785156 114.921875 438.175781 80.488281 438.175781 80.488281 L 440.816406 80.285156 Z M 340.335938 161.148438 L 343.371094 105.410156 L 408.820312 102.421875 L 413.125 163 Z M 340.335938 161.148438 " fill-opacity="1" fill-rule="nonzero"/></g><g clip-path="url(#5c147d875a)"><path fill="#603c21" d="M 447.867188 167.992188 L 447.867188 174.015625 L 307.726562 174.015625 L 307.726562 167.992188 Z M 413.3125 106.4375 C 412.941406 118.554688 413.46875 163 413.46875 163 L 405.355469 163 C 405.355469 163 405.347656 114.585938 405.355469 106.21875 C 398.171875 106.058594 389.410156 105.976562 383.613281 106.308594 C 375.980469 106.742188 356.183594 106.59375 344.019531 106.449219 L 344.019531 161.308594 L 336.878906 161.308594 L 337.125 150.605469 C 337.09375 150.707031 337.011719 150.789062 336.863281 150.769531 C 332.980469 150.351562 321.925781 150.296875 318.03125 150.613281 C 317.660156 150.644531 317.664062 150.070312 318.03125 150.039062 C 319.832031 149.894531 328.796875 149.828125 330.59375 149.839844 C 330.804688 146.558594 330.832031 143.277344 330.679688 139.992188 C 330.679688 139.988281 330.679688 139.988281 330.679688 139.984375 C 328.742188 140.046875 320.84375 140.160156 318.910156 140.332031 C 318.539062 140.367188 318.546875 139.789062 318.910156 139.757812 C 323.070312 139.390625 333.207031 139.273438 337.382812 139.398438 L 338.144531 106.371094 C 335.53125 106.335938 333.957031 106.304688 333.957031 106.304688 C 333.957031 106.304688 333.308594 100.621094 333.957031 97.058594 C 333.957031 97.058594 347.980469 96.558594 358.011719 96.316406 C 357.953125 95.292969 358.003906 94.28125 358.160156 93.269531 C 358.160156 93.261719 358.164062 93.257812 358.164062 93.25 C 349.199219 93.050781 340.234375 92.789062 331.269531 92.457031 L 330.660156 105.046875 L 333.308594 105.046875 C 333.679688 105.046875 333.679688 105.621094 333.308594 105.621094 L 330.632812 105.621094 L 330.628906 105.65625 C 330.613281 106.027344 330.039062 106.027344 330.054688 105.65625 L 330.058594 105.621094 L 318.171875 105.621094 C 317.800781 105.621094 317.800781 105.046875 318.171875 105.046875 L 330.085938 105.046875 L 330.695312 92.433594 C 329.296875 92.382812 319.84375 92.332031 318.445312 92.273438 C 318.078125 92.261719 318.078125 91.6875 318.445312 91.699219 C 326.671875 92.023438 342.957031 92.296875 351.183594 92.511719 C 375.949219 93.160156 400.730469 93.28125 425.5 92.898438 C 425.589844 92.707031 425.894531 92.707031 426.003906 92.890625 C 430.152344 92.824219 434.300781 92.746094 438.445312 92.652344 C 438.816406 92.640625 438.816406 93.21875 438.445312 93.226562 C 434.320312 93.316406 430.191406 93.398438 426.066406 93.464844 C 426.195312 97.109375 426.152344 100.757812 425.933594 104.398438 L 437.484375 104.398438 C 437.855469 104.398438 437.855469 104.972656 437.484375 104.972656 L 425.902344 104.972656 C 425.902344 104.988281 425.898438 105.003906 425.898438 105.019531 C 425.875 105.386719 425.296875 105.390625 425.324219 105.019531 C 425.324219 105.003906 425.324219 104.988281 425.324219 104.972656 L 418.984375 104.972656 C 418.613281 104.972656 418.613281 104.398438 418.984375 104.398438 L 425.359375 104.398438 C 425.574219 100.757812 425.617188 97.117188 425.488281 93.472656 C 421.582031 93.535156 417.667969 93.582031 413.761719 93.617188 C 411.050781 93.644531 408.339844 93.65625 405.625 93.671875 C 405.65625 93.714844 405.679688 93.765625 405.675781 93.835938 C 405.628906 94.617188 405.585938 95.394531 405.539062 96.175781 C 412.597656 96.183594 417.683594 96.191406 417.683594 96.191406 L 417.683594 106.59375 C 417.6875 106.597656 415.996094 106.527344 413.3125 106.4375 Z M 337.125 150.445312 L 337.367188 139.976562 C 335.324219 139.914062 333.285156 139.910156 331.246094 139.96875 C 331.246094 139.976562 331.25 139.988281 331.25 139.996094 C 331.40625 143.28125 331.378906 146.566406 331.167969 149.847656 C 333.066406 149.878906 334.964844 149.992188 336.863281 150.199219 C 337.015625 150.210938 337.105469 150.324219 337.125 150.445312 Z M 381.644531 96.160156 C 381.574219 95.386719 381.5 94.609375 381.429688 93.832031 C 381.421875 93.734375 381.453125 93.664062 381.511719 93.617188 C 373.90625 93.546875 366.300781 93.429688 358.695312 93.265625 C 358.714844 93.3125 358.726562 93.363281 358.71875 93.421875 C 358.570312 94.378906 358.535156 95.335938 358.59375 96.304688 C 361.007812 96.25 363.15625 96.207031 364.789062 96.191406 C 367.527344 96.171875 374.066406 96.160156 381.644531 96.160156 Z M 404.964844 96.179688 C 405.011719 95.398438 405.054688 94.621094 405.101562 93.839844 C 405.105469 93.769531 405.132812 93.71875 405.167969 93.675781 C 397.410156 93.710938 389.648438 93.691406 381.890625 93.625 C 381.953125 93.667969 381.996094 93.738281 382.007812 93.835938 C 382.082031 94.609375 382.15625 95.386719 382.226562 96.164062 C 389.738281 96.160156 398.191406 96.171875 404.964844 96.179688 Z M 321.671875 77.199219 C 352.179688 79.667969 382.8125 78.722656 413.367188 78.015625 C 422.164062 77.8125 430.957031 77.609375 439.75 77.40625 C 440.121094 77.398438 440.121094 76.824219 439.75 76.832031 C 409.128906 77.539062 378.449219 78.808594 347.820312 77.992188 C 339.09375 77.761719 330.375 77.328125 321.671875 76.625 C 321.304688 76.597656 321.304688 77.171875 321.671875 77.199219 Z M 411.882812 82.089844 C 419.875 81.75 427.867188 81.320312 435.847656 80.804688 C 436.214844 80.78125 436.21875 80.203125 435.847656 80.230469 C 407.332031 82.070312 378.746094 82.785156 350.175781 82.339844 C 342.175781 82.210938 334.175781 81.996094 326.183594 81.691406 C 325.8125 81.679688 325.8125 82.253906 326.183594 82.269531 C 354.734375 83.347656 383.332031 83.292969 411.882812 82.089844 Z M 318.03125 129.328125 C 317.660156 129.335938 317.660156 129.914062 318.03125 129.902344 C 320.25 129.828125 328.988281 129.753906 331.207031 129.683594 C 331.246094 129.984375 331.71875 129.980469 331.765625 129.664062 C 333.46875 129.605469 335.171875 129.550781 336.875 129.496094 C 337.246094 129.484375 337.246094 128.910156 336.875 128.917969 C 335.179688 128.976562 333.484375 129.03125 331.789062 129.085938 C 331.921875 125.375 331.867188 121.664062 331.617188 117.960938 C 331.617188 117.949219 331.609375 117.941406 331.609375 117.929688 L 337.199219 117.929688 C 337.570312 117.929688 337.570312 117.355469 337.199219 117.355469 L 318.757812 117.355469 C 318.386719 117.355469 318.386719 117.929688 318.757812 117.929688 L 331.046875 117.929688 C 331.046875 117.941406 331.039062 117.949219 331.042969 117.960938 C 331.292969 121.671875 331.347656 125.386719 331.21875 129.105469 C 328.992188 129.179688 320.253906 129.253906 318.03125 129.328125 Z M 414.765625 128.714844 C 418.34375 128.691406 421.921875 128.660156 425.503906 128.636719 C 425.503906 128.65625 425.503906 128.675781 425.507812 128.695312 C 425.550781 129.058594 426.125 129.0625 426.085938 128.695312 C 426.082031 128.671875 426.082031 128.652344 426.078125 128.632812 C 429.773438 128.601562 433.46875 128.578125 437.160156 128.550781 C 437.53125 128.546875 437.53125 127.972656 437.160156 127.976562 C 433.449219 128.003906 429.734375 128.027344 426.023438 128.054688 C 425.71875 124.355469 426.476562 120.667969 426.375 116.960938 C 429.539062 117.027344 432.699219 117.144531 435.859375 117.335938 C 436.230469 117.355469 436.226562 116.78125 435.859375 116.757812 C 428.945312 116.347656 422.019531 116.234375 415.09375 116.417969 C 414.722656 116.429688 414.722656 117.003906 415.09375 116.996094 C 418.660156 116.898438 422.230469 116.886719 425.796875 116.945312 C 425.90625 120.660156 425.144531 124.351562 425.449219 128.058594 C 421.890625 128.085938 418.328125 128.113281 414.765625 128.136719 C 414.394531 128.144531 414.394531 128.71875 414.765625 128.714844 Z M 317.894531 161.417969 C 317.523438 161.417969 317.523438 161.992188 317.894531 161.992188 L 336.230469 161.992188 C 336.601562 161.992188 336.601562 161.417969 336.230469 161.417969 Z M 415.414062 161.667969 C 423.097656 161.765625 430.78125 161.628906 438.453125 161.25 C 438.820312 161.230469 438.824219 160.652344 438.453125 160.671875 C 430.78125 161.050781 423.097656 161.191406 415.414062 161.089844 C 415.042969 161.085938 415.042969 161.660156 415.414062 161.667969 Z M 426.707031 150.210938 C 426.707031 150.140625 426.710938 150.070312 426.714844 149.996094 C 430.308594 150.125 433.902344 150.277344 437.496094 150.449219 C 437.867188 150.46875 437.867188 149.894531 437.496094 149.875 C 433.914062 149.703125 430.328125 149.550781 426.746094 149.421875 C 426.925781 146.019531 427.03125 142.613281 427.054688 139.207031 C 430.421875 139.203125 433.792969 139.109375 437.15625 138.921875 C 437.523438 138.902344 437.527344 138.328125 437.15625 138.347656 C 429.914062 138.75 422.664062 138.734375 415.421875 138.296875 C 415.050781 138.273438 415.054688 138.847656 415.421875 138.871094 C 419.105469 139.09375 422.792969 139.203125 426.480469 139.210938 C 426.457031 142.609375 426.347656 146.003906 426.167969 149.402344 C 422.800781 149.285156 419.433594 149.179688 416.0625 149.101562 C 415.691406 149.09375 415.691406 149.667969 416.0625 149.675781 C 419.421875 149.753906 422.78125 149.855469 426.136719 149.976562 C 426.132812 150.054688 426.128906 150.132812 426.125 150.210938 C 426.105469 150.578125 426.683594 150.578125 426.707031 150.210938 Z M 426.707031 150.210938 " fill-opacity="1" fill-rule="nonzero"/></g><path fill="#c59163" d="M 343.210938 106.921875 C 341.796875 106.960938 340.398438 106.898438 338.996094 106.734375 C 338.628906 106.691406 338.625 106.113281 338.996094 106.15625 C 340.398438 106.324219 341.796875 106.386719 343.210938 106.34375 C 343.578125 106.335938 343.578125 106.910156 343.210938 106.921875 Z M 412.003906 106.242188 C 410.058594 106.03125 408.113281 105.988281 406.160156 106.101562 C 405.792969 106.125 405.789062 106.699219 406.160156 106.675781 C 408.113281 106.5625 410.054688 106.605469 412.003906 106.816406 C 412.371094 106.855469 412.367188 106.28125 412.003906 106.242188 Z M 412.003906 106.242188 " fill-opacity="1" fill-rule="nonzero"/><path fill="#3e4c60" d="M 490.90625 102.421875 L 558.886719 102.421875 L 558.886719 165.265625 L 490.90625 165.265625 Z M 490.90625 102.421875 " fill-opacity="1" fill-rule="nonzero"/><path fill="#cd5d48" d="M 512.972656 161.21875 C 509.90625 159.039062 508.019531 155.472656 507.941406 151.5 C 507.898438 149.554688 507.390625 146.3125 508.554688 144.710938 C 508.652344 145.746094 509.457031 146.871094 510.351562 147.398438 C 509.730469 143.578125 512.148438 141.019531 514.125 137.957031 C 516.246094 134.664062 516.789062 131.367188 515.746094 127.695312 C 517.597656 128.394531 517.945312 130.164062 519.101562 131.410156 C 520.042969 128.144531 519.949219 123.59375 519.539062 120.324219 C 519.191406 117.535156 518.972656 114.539062 518.351562 111.867188 C 522.328125 115.59375 527.019531 118.089844 530.0625 122.714844 C 531.167969 124.402344 531.710938 126.488281 532.164062 128.460938 C 532.421875 129.566406 532.160156 131.078125 532.640625 132.042969 C 534.816406 130.585938 535.898438 127.746094 538.722656 127.066406 C 536.394531 129.546875 536.988281 133.382812 536.988281 136.5 C 536.988281 139.875 536.359375 143.101562 536.328125 146.433594 C 537.898438 144.378906 539.238281 142.066406 541.175781 140.347656 C 541.75 147.765625 543.304688 155.035156 537.480469 160.6875 C 534.976562 163.117188 531.921875 163.0625 528.605469 163.367188 C 524.800781 163.714844 520.570312 163.773438 516.785156 163.328125 C 514.851562 163.097656 512.472656 162.101562 512.972656 161.21875 Z M 512.972656 161.21875 " fill-opacity="1" fill-rule="nonzero"/><path fill="#f7d96a" d="M 529.8125 162.191406 C 526.972656 162.992188 523.238281 163.488281 520.210938 163.195312 C 518.832031 163.0625 514.628906 161.058594 513.207031 158.851562 C 511.804688 156.683594 510.023438 153.324219 510.992188 150.789062 C 511.738281 153.214844 514.082031 154.25 516.46875 154.007812 C 516.078125 150.355469 516.097656 146.984375 516.921875 143.332031 C 517.164062 142.261719 517.808594 139.074219 518.839844 138.554688 C 520.132812 137.90625 520.316406 139.757812 521.515625 140 C 523.285156 140.355469 524.566406 133.855469 524.855469 132.28125 C 525.226562 130.261719 525.433594 127.179688 524.984375 125.175781 C 524.734375 124.054688 523.941406 123.046875 523.960938 121.917969 C 525.132812 122.277344 525.894531 124.007812 526.484375 125.113281 C 527.792969 127.578125 529.160156 130.132812 530.222656 132.714844 C 531.71875 136.339844 530.441406 140.207031 531.503906 143.660156 C 531.894531 142.503906 532.308594 141.273438 533.253906 140.433594 C 533.058594 143.605469 529.957031 150.042969 534.015625 152.238281 C 534.855469 151.503906 535.351562 150.460938 536.234375 149.769531 C 537.390625 154.390625 534.726562 160.800781 529.8125 162.191406 Z M 520.808594 135.222656 C 521.914062 134.308594 521.988281 131.683594 521.535156 129.96875 C 520.351562 131.078125 519.25 134.148438 520.808594 135.222656 Z M 521.332031 117.75 L 521.332031 117.234375 C 521.332031 118.667969 521.261719 120.125 521.367188 121.546875 C 522.234375 120.632812 523.164062 118.238281 521.332031 117.75 Z M 534.621094 138.941406 C 535.078125 138.117188 535.503906 135.222656 533.925781 134.65625 C 532.429688 135.59375 533.613281 138.070312 534.621094 138.941406 Z M 534.316406 135.890625 L 534.3125 135.890625 C 534.3125 135.890625 534.3125 135.890625 534.316406 135.890625 C 534.3125 135.890625 534.3125 135.890625 534.316406 135.890625 Z M 534.316406 135.890625 " fill-opacity="1" fill-rule="nonzero"/><g clip-path="url(#760c8b4b24)"><path fill="#c59163" d="M 590.195312 77.449219 L 594.882812 77.449219 L 594.882812 67.929688 C 594.882812 67.929688 525.414062 68.128906 521.625 67.929688 C 513.914062 67.519531 461.039062 68.128906 457.386719 67.929688 C 455.121094 67.800781 457.386719 77.449219 457.386719 77.449219 L 462.664062 77.449219 L 462.664062 81.5 L 465.503906 81.5 L 465.503906 161.703125 L 460.027344 161.703125 L 460.027344 167.992188 L 593.058594 167.992188 L 592.042969 162.324219 L 587.578125 161.308594 C 587.578125 161.308594 587.375 120.1875 587.578125 117.554688 C 587.78125 114.921875 587.171875 80.488281 587.171875 80.488281 L 589.8125 80.285156 Z M 489.332031 161.148438 L 492.367188 105.410156 L 557.816406 102.421875 L 562.121094 163 Z M 489.332031 161.148438 " fill-opacity="1" fill-rule="nonzero"/></g><g clip-path="url(#cea40b7db2)"><path fill="#603c21" d="M 596.863281 167.992188 L 596.863281 174.015625 L 456.722656 174.015625 L 456.722656 167.992188 Z M 562.308594 106.4375 C 561.9375 118.554688 562.464844 163 562.464844 163 L 554.351562 163 C 554.351562 163 554.34375 114.585938 554.351562 106.21875 C 547.167969 106.058594 538.40625 105.976562 532.609375 106.308594 C 524.976562 106.742188 505.179688 106.59375 493.015625 106.449219 L 493.015625 161.308594 L 485.875 161.308594 L 486.121094 150.605469 C 486.089844 150.707031 486.007812 150.789062 485.859375 150.769531 C 481.976562 150.351562 470.921875 150.296875 467.027344 150.613281 C 466.65625 150.644531 466.660156 150.070312 467.027344 150.039062 C 468.828125 149.894531 477.792969 149.828125 479.589844 149.839844 C 479.800781 146.558594 479.828125 143.277344 479.675781 139.992188 C 479.675781 139.988281 479.675781 139.988281 479.675781 139.984375 C 477.738281 140.046875 469.839844 140.160156 467.90625 140.332031 C 467.535156 140.367188 467.542969 139.789062 467.90625 139.757812 C 472.066406 139.390625 482.203125 139.273438 486.378906 139.398438 L 487.140625 106.371094 C 484.527344 106.335938 482.953125 106.304688 482.953125 106.304688 C 482.953125 106.304688 482.304688 100.621094 482.953125 97.058594 C 482.953125 97.058594 496.976562 96.558594 507.007812 96.316406 C 506.949219 95.292969 507 94.28125 507.15625 93.269531 C 507.15625 93.261719 507.160156 93.257812 507.160156 93.25 C 498.195312 93.050781 489.230469 92.789062 480.265625 92.457031 L 479.65625 105.046875 L 482.304688 105.046875 C 482.675781 105.046875 482.675781 105.621094 482.304688 105.621094 L 479.628906 105.621094 L 479.625 105.65625 C 479.609375 106.027344 479.035156 106.027344 479.050781 105.65625 L 479.054688 105.621094 L 467.167969 105.621094 C 466.796875 105.621094 466.796875 105.046875 467.167969 105.046875 L 479.082031 105.046875 L 479.691406 92.433594 C 478.292969 92.382812 468.839844 92.332031 467.441406 92.273438 C 467.074219 92.261719 467.074219 91.6875 467.441406 91.699219 C 475.667969 92.023438 491.953125 92.296875 500.179688 92.511719 C 524.945312 93.160156 549.726562 93.28125 574.496094 92.898438 C 574.585938 92.707031 574.890625 92.707031 575 92.890625 C 579.148438 92.824219 583.296875 92.746094 587.441406 92.652344 C 587.8125 92.640625 587.8125 93.21875 587.441406 93.226562 C 583.316406 93.316406 579.1875 93.398438 575.0625 93.464844 C 575.191406 97.109375 575.148438 100.757812 574.933594 104.398438 L 586.480469 104.398438 C 586.851562 104.398438 586.851562 104.972656 586.480469 104.972656 L 574.898438 104.972656 C 574.898438 104.988281 574.894531 105.003906 574.894531 105.019531 C 574.871094 105.386719 574.292969 105.390625 574.320312 105.019531 C 574.320312 105.003906 574.320312 104.988281 574.320312 104.972656 L 567.980469 104.972656 C 567.609375 104.972656 567.609375 104.398438 567.980469 104.398438 L 574.355469 104.398438 C 574.570312 100.757812 574.613281 97.117188 574.484375 93.472656 C 570.578125 93.535156 566.664062 93.582031 562.757812 93.617188 C 560.046875 93.644531 557.335938 93.65625 554.625 93.671875 C 554.652344 93.714844 554.675781 93.765625 554.671875 93.835938 C 554.625 94.617188 554.582031 95.394531 554.535156 96.175781 C 561.59375 96.183594 566.679688 96.191406 566.679688 96.191406 L 566.679688 106.59375 C 566.683594 106.597656 564.992188 106.527344 562.308594 106.4375 Z M 486.121094 150.445312 L 486.363281 139.976562 C 484.320312 139.914062 482.28125 139.910156 480.242188 139.96875 C 480.242188 139.976562 480.246094 139.988281 480.246094 139.996094 C 480.402344 143.28125 480.375 146.566406 480.164062 149.847656 C 482.0625 149.878906 483.960938 149.992188 485.859375 150.199219 C 486.011719 150.210938 486.101562 150.324219 486.121094 150.445312 Z M 530.640625 96.160156 C 530.570312 95.386719 530.496094 94.609375 530.425781 93.832031 C 530.417969 93.734375 530.449219 93.664062 530.507812 93.617188 C 522.902344 93.546875 515.296875 93.429688 507.691406 93.265625 C 507.710938 93.3125 507.722656 93.363281 507.714844 93.421875 C 507.566406 94.378906 507.53125 95.335938 507.589844 96.304688 C 510.003906 96.25 512.152344 96.207031 513.785156 96.191406 C 516.523438 96.171875 523.0625 96.160156 530.640625 96.160156 Z M 553.960938 96.179688 C 554.007812 95.398438 554.050781 94.621094 554.097656 93.839844 C 554.101562 93.769531 554.128906 93.71875 554.164062 93.675781 C 546.40625 93.710938 538.644531 93.691406 530.886719 93.625 C 530.949219 93.667969 530.992188 93.738281 531.003906 93.835938 C 531.078125 94.609375 531.152344 95.386719 531.222656 96.164062 C 538.734375 96.160156 547.1875 96.171875 553.960938 96.179688 Z M 470.667969 77.199219 C 501.175781 79.667969 531.808594 78.722656 562.363281 78.015625 C 571.160156 77.8125 579.953125 77.609375 588.746094 77.40625 C 589.117188 77.398438 589.117188 76.824219 588.746094 76.832031 C 558.125 77.539062 527.445312 78.808594 496.816406 77.992188 C 488.089844 77.761719 479.371094 77.328125 470.667969 76.625 C 470.300781 76.597656 470.300781 77.171875 470.667969 77.199219 Z M 560.878906 82.089844 C 568.871094 81.75 576.863281 81.320312 584.84375 80.804688 C 585.210938 80.78125 585.214844 80.203125 584.84375 80.230469 C 556.328125 82.070312 527.742188 82.785156 499.171875 82.339844 C 491.171875 82.210938 483.171875 81.996094 475.179688 81.691406 C 474.808594 81.679688 474.808594 82.253906 475.179688 82.269531 C 503.730469 83.347656 532.328125 83.292969 560.878906 82.089844 Z M 467.027344 129.328125 C 466.65625 129.335938 466.65625 129.914062 467.027344 129.902344 C 469.246094 129.828125 477.984375 129.753906 480.203125 129.683594 C 480.242188 129.984375 480.714844 129.980469 480.761719 129.664062 C 482.464844 129.605469 484.167969 129.550781 485.871094 129.496094 C 486.242188 129.484375 486.242188 128.910156 485.871094 128.917969 C 484.175781 128.976562 482.480469 129.03125 480.785156 129.085938 C 480.917969 125.375 480.863281 121.664062 480.613281 117.960938 C 480.613281 117.949219 480.605469 117.941406 480.605469 117.929688 L 486.195312 117.929688 C 486.566406 117.929688 486.566406 117.355469 486.195312 117.355469 L 467.753906 117.355469 C 467.382812 117.355469 467.382812 117.929688 467.753906 117.929688 L 480.042969 117.929688 C 480.042969 117.941406 480.035156 117.949219 480.039062 117.960938 C 480.289062 121.671875 480.34375 125.386719 480.214844 129.105469 C 477.988281 129.179688 469.25 129.253906 467.027344 129.328125 Z M 563.761719 128.714844 C 567.339844 128.691406 570.917969 128.660156 574.5 128.636719 C 574.5 128.65625 574.5 128.675781 574.503906 128.695312 C 574.546875 129.058594 575.121094 129.0625 575.082031 128.695312 C 575.078125 128.671875 575.078125 128.652344 575.074219 128.632812 C 578.769531 128.601562 582.464844 128.578125 586.15625 128.550781 C 586.527344 128.546875 586.527344 127.972656 586.15625 127.976562 C 582.445312 128.003906 578.730469 128.027344 575.019531 128.054688 C 574.714844 124.355469 575.472656 120.667969 575.371094 116.960938 C 578.535156 117.027344 581.695312 117.144531 584.855469 117.335938 C 585.226562 117.355469 585.222656 116.78125 584.855469 116.757812 C 577.941406 116.347656 571.015625 116.234375 564.089844 116.417969 C 563.71875 116.429688 563.71875 117.003906 564.089844 116.996094 C 567.65625 116.898438 571.226562 116.886719 574.792969 116.945312 C 574.902344 120.660156 574.140625 124.351562 574.445312 128.058594 C 570.886719 128.085938 567.324219 128.113281 563.761719 128.136719 C 563.390625 128.144531 563.390625 128.71875 563.761719 128.714844 Z M 466.890625 161.417969 C 466.519531 161.417969 466.519531 161.992188 466.890625 161.992188 L 485.226562 161.992188 C 485.597656 161.992188 485.597656 161.417969 485.226562 161.417969 Z M 564.414062 161.667969 C 572.09375 161.765625 579.777344 161.628906 587.449219 161.25 C 587.816406 161.230469 587.820312 160.652344 587.449219 160.671875 C 579.777344 161.050781 572.09375 161.191406 564.414062 161.089844 C 564.039062 161.085938 564.039062 161.660156 564.414062 161.667969 Z M 575.703125 150.210938 C 575.703125 150.140625 575.707031 150.070312 575.710938 149.996094 C 579.304688 150.125 582.898438 150.277344 586.492188 150.449219 C 586.863281 150.46875 586.863281 149.894531 586.492188 149.875 C 582.910156 149.703125 579.324219 149.550781 575.742188 149.421875 C 575.921875 146.019531 576.027344 142.613281 576.054688 139.207031 C 579.417969 139.203125 582.789062 139.109375 586.152344 138.921875 C 586.519531 138.902344 586.523438 138.328125 586.152344 138.347656 C 578.910156 138.75 571.660156 138.734375 564.417969 138.296875 C 564.046875 138.273438 564.050781 138.847656 564.417969 138.871094 C 568.101562 139.09375 571.789062 139.203125 575.476562 139.210938 C 575.453125 142.609375 575.34375 146.003906 575.164062 149.402344 C 571.796875 149.285156 568.429688 149.179688 565.058594 149.101562 C 564.6875 149.09375 564.6875 149.667969 565.058594 149.675781 C 568.417969 149.753906 571.777344 149.855469 575.132812 149.976562 C 575.128906 150.054688 575.125 150.132812 575.121094 150.210938 C 575.101562 150.578125 575.679688 150.578125 575.703125 150.210938 Z M 575.703125 150.210938 " fill-opacity="1" fill-rule="nonzero"/></g><path fill="#c59163" d="M 492.207031 106.921875 C 490.792969 106.960938 489.394531 106.898438 487.992188 106.734375 C 487.625 106.691406 487.621094 106.113281 487.992188 106.15625 C 489.394531 106.324219 490.792969 106.386719 492.207031 106.34375 C 492.578125 106.335938 492.574219 106.910156 492.207031 106.921875 Z M 561 106.242188 C 559.054688 106.03125 557.109375 105.988281 555.15625 106.101562 C 554.789062 106.125 554.785156 106.699219 555.15625 106.675781 C 557.109375 106.5625 559.050781 106.605469 561 106.816406 C 561.367188 106.855469 561.363281 106.28125 561 106.242188 Z M 561 106.242188 " fill-opacity="1" fill-rule="nonzero"/><path fill="#3e4c60" d="M 192.914062 102.421875 L 260.894531 102.421875 L 260.894531 165.265625 L 192.914062 165.265625 Z M 192.914062 102.421875 " fill-opacity="1" fill-rule="nonzero"/><path fill="#cd5d48" d="M 214.980469 161.21875 C 211.914062 159.039062 210.027344 155.472656 209.949219 151.5 C 209.90625 149.554688 209.398438 146.3125 210.5625 144.710938 C 210.660156 145.746094 211.464844 146.871094 212.359375 147.398438 C 211.738281 143.578125 214.15625 141.019531 216.132812 137.957031 C 218.253906 134.664062 218.796875 131.367188 217.753906 127.695312 C 219.605469 128.394531 219.953125 130.164062 221.109375 131.410156 C 222.050781 128.144531 221.957031 123.59375 221.546875 120.324219 C 221.199219 117.535156 220.980469 114.539062 220.359375 111.867188 C 224.335938 115.59375 229.027344 118.089844 232.066406 122.714844 C 233.175781 124.402344 233.71875 126.488281 234.171875 128.460938 C 234.429688 129.566406 234.167969 131.078125 234.648438 132.042969 C 236.824219 130.585938 237.90625 127.746094 240.730469 127.066406 C 238.402344 129.546875 238.996094 133.382812 238.996094 136.5 C 238.996094 139.875 238.367188 143.101562 238.335938 146.433594 C 239.90625 144.378906 241.246094 142.066406 243.183594 140.347656 C 243.757812 147.765625 245.308594 155.035156 239.488281 160.6875 C 236.984375 163.117188 233.929688 163.0625 230.613281 163.367188 C 226.808594 163.714844 222.578125 163.773438 218.792969 163.328125 C 216.859375 163.097656 214.480469 162.101562 214.980469 161.21875 Z M 214.980469 161.21875 " fill-opacity="1" fill-rule="nonzero"/><path fill="#f7d96a" d="M 231.820312 162.191406 C 228.980469 162.992188 225.246094 163.488281 222.21875 163.195312 C 220.839844 163.0625 216.636719 161.058594 215.210938 158.851562 C 213.8125 156.683594 212.03125 153.324219 213 150.789062 C 213.746094 153.214844 216.089844 154.25 218.476562 154.007812 C 218.085938 150.355469 218.105469 146.984375 218.929688 143.332031 C 219.171875 142.261719 219.816406 139.074219 220.847656 138.554688 C 222.140625 137.90625 222.324219 139.757812 223.523438 140 C 225.292969 140.355469 226.574219 133.855469 226.863281 132.28125 C 227.234375 130.261719 227.441406 127.179688 226.992188 125.175781 C 226.742188 124.054688 225.949219 123.046875 225.96875 121.917969 C 227.140625 122.277344 227.902344 124.007812 228.492188 125.113281 C 229.800781 127.578125 231.167969 130.132812 232.230469 132.714844 C 233.726562 136.339844 232.449219 140.207031 233.511719 143.660156 C 233.902344 142.503906 234.316406 141.273438 235.261719 140.433594 C 235.066406 143.605469 231.964844 150.042969 236.023438 152.238281 C 236.863281 151.503906 237.359375 150.460938 238.242188 149.769531 C 239.398438 154.390625 236.734375 160.800781 231.820312 162.191406 Z M 222.816406 135.222656 C 223.921875 134.308594 223.996094 131.683594 223.542969 129.96875 C 222.359375 131.078125 221.257812 134.148438 222.816406 135.222656 Z M 223.339844 117.75 L 223.339844 117.234375 C 223.339844 118.667969 223.269531 120.125 223.375 121.546875 C 224.242188 120.632812 225.171875 118.238281 223.339844 117.75 Z M 236.628906 138.941406 C 237.085938 138.117188 237.511719 135.222656 235.933594 134.65625 C 234.4375 135.59375 235.621094 138.070312 236.628906 138.941406 Z M 236.320312 135.890625 Z M 236.320312 135.890625 " fill-opacity="1" fill-rule="nonzero"/><g clip-path="url(#9391732d03)"><path fill="#c59163" d="M 292.203125 77.449219 L 296.890625 77.449219 L 296.890625 67.929688 C 296.890625 67.929688 227.421875 68.128906 223.632812 67.929688 C 215.921875 67.519531 163.046875 68.128906 159.394531 67.929688 C 157.128906 67.800781 159.394531 77.449219 159.394531 77.449219 L 164.671875 77.449219 L 164.671875 81.5 L 167.511719 81.5 L 167.511719 161.703125 L 162.035156 161.703125 L 162.035156 167.992188 L 295.066406 167.992188 L 294.050781 162.324219 L 289.585938 161.308594 C 289.585938 161.308594 289.382812 120.1875 289.585938 117.554688 C 289.789062 114.921875 289.179688 80.488281 289.179688 80.488281 L 291.820312 80.285156 Z M 191.339844 161.148438 L 194.375 105.410156 L 259.824219 102.421875 L 264.128906 163 Z M 191.339844 161.148438 " fill-opacity="1" fill-rule="nonzero"/></g><g clip-path="url(#5215897ca9)"><path fill="#603c21" d="M 298.871094 167.992188 L 298.871094 174.015625 L 158.730469 174.015625 L 158.730469 167.992188 Z M 264.316406 106.4375 C 263.945312 118.554688 264.472656 163 264.472656 163 L 256.359375 163 C 256.359375 163 256.351562 114.585938 256.359375 106.21875 C 249.175781 106.058594 240.414062 105.976562 234.617188 106.308594 C 226.984375 106.742188 207.1875 106.59375 195.023438 106.449219 L 195.023438 161.308594 L 187.882812 161.308594 L 188.128906 150.605469 C 188.097656 150.707031 188.015625 150.789062 187.867188 150.769531 C 183.984375 150.351562 172.929688 150.296875 169.035156 150.613281 C 168.664062 150.644531 168.667969 150.070312 169.035156 150.039062 C 170.835938 149.894531 179.800781 149.828125 181.597656 149.839844 C 181.808594 146.558594 181.835938 143.277344 181.683594 139.992188 C 181.683594 139.988281 181.683594 139.988281 181.683594 139.984375 C 179.746094 140.046875 171.847656 140.160156 169.914062 140.332031 C 169.542969 140.367188 169.550781 139.789062 169.914062 139.757812 C 174.074219 139.390625 184.210938 139.273438 188.386719 139.398438 L 189.148438 106.371094 C 186.535156 106.335938 184.960938 106.304688 184.960938 106.304688 C 184.960938 106.304688 184.3125 100.621094 184.960938 97.058594 C 184.960938 97.058594 198.984375 96.558594 209.015625 96.316406 C 208.957031 95.292969 209.007812 94.28125 209.164062 93.269531 C 209.164062 93.261719 209.167969 93.257812 209.167969 93.25 C 200.203125 93.050781 191.238281 92.789062 182.273438 92.457031 L 181.664062 105.046875 L 184.3125 105.046875 C 184.683594 105.046875 184.683594 105.621094 184.3125 105.621094 L 181.636719 105.621094 L 181.632812 105.65625 C 181.617188 106.027344 181.042969 106.027344 181.058594 105.65625 L 181.0625 105.621094 L 169.175781 105.621094 C 168.804688 105.621094 168.804688 105.046875 169.175781 105.046875 L 181.089844 105.046875 L 181.699219 92.433594 C 180.300781 92.382812 170.847656 92.332031 169.449219 92.273438 C 169.082031 92.261719 169.082031 91.6875 169.449219 91.699219 C 177.675781 92.023438 193.960938 92.296875 202.1875 92.511719 C 226.953125 93.160156 251.734375 93.28125 276.503906 92.898438 C 276.59375 92.707031 276.898438 92.707031 277.007812 92.890625 C 281.15625 92.824219 285.304688 92.746094 289.449219 92.652344 C 289.820312 92.640625 289.820312 93.21875 289.449219 93.226562 C 285.324219 93.316406 281.195312 93.398438 277.070312 93.464844 C 277.199219 97.109375 277.15625 100.757812 276.9375 104.398438 L 288.488281 104.398438 C 288.859375 104.398438 288.859375 104.972656 288.488281 104.972656 L 276.90625 104.972656 C 276.90625 104.988281 276.902344 105.003906 276.902344 105.019531 C 276.878906 105.386719 276.300781 105.390625 276.328125 105.019531 C 276.328125 105.003906 276.328125 104.988281 276.328125 104.972656 L 269.988281 104.972656 C 269.617188 104.972656 269.617188 104.398438 269.988281 104.398438 L 276.363281 104.398438 C 276.578125 100.757812 276.621094 97.117188 276.492188 93.472656 C 272.585938 93.535156 268.671875 93.582031 264.765625 93.617188 C 262.054688 93.644531 259.34375 93.65625 256.628906 93.671875 C 256.660156 93.714844 256.683594 93.765625 256.679688 93.835938 C 256.632812 94.617188 256.589844 95.394531 256.542969 96.175781 C 263.601562 96.183594 268.6875 96.191406 268.6875 96.191406 L 268.6875 106.59375 C 268.691406 106.597656 267 106.527344 264.316406 106.4375 Z M 188.128906 150.445312 L 188.371094 139.976562 C 186.328125 139.914062 184.289062 139.910156 182.25 139.96875 C 182.25 139.976562 182.253906 139.988281 182.253906 139.996094 C 182.410156 143.28125 182.382812 146.566406 182.171875 149.847656 C 184.070312 149.878906 185.96875 149.992188 187.867188 150.199219 C 188.019531 150.210938 188.109375 150.324219 188.128906 150.445312 Z M 232.648438 96.160156 C 232.578125 95.386719 232.503906 94.609375 232.433594 93.832031 C 232.425781 93.734375 232.457031 93.664062 232.515625 93.617188 C 224.910156 93.546875 217.304688 93.429688 209.699219 93.265625 C 209.71875 93.3125 209.730469 93.363281 209.722656 93.421875 C 209.574219 94.378906 209.539062 95.335938 209.597656 96.304688 C 212.011719 96.25 214.160156 96.207031 215.792969 96.191406 C 218.53125 96.171875 225.070312 96.160156 232.648438 96.160156 Z M 255.96875 96.179688 C 256.015625 95.398438 256.058594 94.621094 256.105469 93.839844 C 256.109375 93.769531 256.136719 93.71875 256.171875 93.675781 C 248.414062 93.710938 240.652344 93.691406 232.894531 93.625 C 232.957031 93.667969 233 93.738281 233.011719 93.835938 C 233.085938 94.609375 233.160156 95.386719 233.230469 96.164062 C 240.742188 96.160156 249.195312 96.171875 255.96875 96.179688 Z M 172.675781 77.199219 C 203.183594 79.667969 233.816406 78.722656 264.371094 78.015625 C 273.164062 77.8125 281.960938 77.609375 290.753906 77.40625 C 291.125 77.398438 291.125 76.824219 290.753906 76.832031 C 260.132812 77.539062 229.453125 78.808594 198.824219 77.992188 C 190.097656 77.761719 181.378906 77.328125 172.675781 76.625 C 172.308594 76.597656 172.308594 77.171875 172.675781 77.199219 Z M 262.886719 82.089844 C 270.878906 81.75 278.871094 81.320312 286.851562 80.804688 C 287.21875 80.78125 287.222656 80.203125 286.851562 80.230469 C 258.335938 82.070312 229.75 82.785156 201.179688 82.339844 C 193.179688 82.210938 185.179688 81.996094 177.1875 81.691406 C 176.816406 81.679688 176.816406 82.253906 177.1875 82.269531 C 205.738281 83.347656 234.335938 83.292969 262.886719 82.089844 Z M 169.035156 129.328125 C 168.664062 129.335938 168.664062 129.914062 169.035156 129.902344 C 171.253906 129.828125 179.992188 129.753906 182.210938 129.683594 C 182.25 129.984375 182.722656 129.980469 182.769531 129.664062 C 184.472656 129.605469 186.175781 129.550781 187.878906 129.496094 C 188.25 129.484375 188.25 128.910156 187.878906 128.917969 C 186.183594 128.976562 184.488281 129.03125 182.792969 129.085938 C 182.925781 125.375 182.871094 121.664062 182.621094 117.960938 C 182.621094 117.949219 182.613281 117.941406 182.613281 117.929688 L 188.203125 117.929688 C 188.574219 117.929688 188.574219 117.355469 188.203125 117.355469 L 169.761719 117.355469 C 169.390625 117.355469 169.390625 117.929688 169.761719 117.929688 L 182.050781 117.929688 C 182.050781 117.941406 182.042969 117.949219 182.046875 117.960938 C 182.296875 121.671875 182.351562 125.386719 182.222656 129.105469 C 179.996094 129.179688 171.257812 129.253906 169.035156 129.328125 Z M 265.769531 128.714844 C 269.347656 128.691406 272.925781 128.660156 276.507812 128.636719 C 276.507812 128.65625 276.507812 128.675781 276.511719 128.695312 C 276.554688 129.058594 277.128906 129.0625 277.089844 128.695312 C 277.085938 128.671875 277.085938 128.652344 277.082031 128.632812 C 280.777344 128.601562 284.472656 128.578125 288.164062 128.550781 C 288.535156 128.546875 288.535156 127.972656 288.164062 127.976562 C 284.453125 128.003906 280.738281 128.027344 277.027344 128.054688 C 276.722656 124.355469 277.480469 120.667969 277.378906 116.960938 C 280.542969 117.027344 283.703125 117.144531 286.863281 117.335938 C 287.234375 117.355469 287.230469 116.78125 286.863281 116.757812 C 279.949219 116.347656 273.023438 116.234375 266.097656 116.417969 C 265.726562 116.429688 265.726562 117.003906 266.097656 116.996094 C 269.664062 116.898438 273.234375 116.886719 276.800781 116.945312 C 276.910156 120.660156 276.148438 124.351562 276.453125 128.058594 C 272.894531 128.085938 269.332031 128.113281 265.769531 128.136719 C 265.398438 128.144531 265.398438 128.71875 265.769531 128.714844 Z M 168.898438 161.417969 C 168.527344 161.417969 168.527344 161.992188 168.898438 161.992188 L 187.234375 161.992188 C 187.605469 161.992188 187.605469 161.417969 187.234375 161.417969 Z M 266.417969 161.667969 C 274.101562 161.765625 281.785156 161.628906 289.457031 161.25 C 289.824219 161.230469 289.828125 160.652344 289.457031 160.671875 C 281.785156 161.050781 274.101562 161.191406 266.417969 161.089844 C 266.046875 161.085938 266.046875 161.660156 266.417969 161.667969 Z M 277.710938 150.210938 C 277.710938 150.140625 277.714844 150.070312 277.71875 149.996094 C 281.3125 150.125 284.90625 150.277344 288.5 150.449219 C 288.871094 150.46875 288.871094 149.894531 288.5 149.875 C 284.917969 149.703125 281.332031 149.550781 277.75 149.421875 C 277.929688 146.019531 278.035156 142.613281 278.058594 139.207031 C 281.425781 139.203125 284.796875 139.109375 288.160156 138.921875 C 288.527344 138.902344 288.53125 138.328125 288.160156 138.347656 C 280.917969 138.75 273.667969 138.734375 266.425781 138.296875 C 266.054688 138.273438 266.058594 138.847656 266.425781 138.871094 C 270.109375 139.09375 273.796875 139.203125 277.484375 139.210938 C 277.460938 142.609375 277.351562 146.003906 277.171875 149.402344 C 273.804688 149.285156 270.4375 149.179688 267.066406 149.101562 C 266.695312 149.09375 266.695312 149.667969 267.066406 149.675781 C 270.425781 149.753906 273.785156 149.855469 277.140625 149.976562 C 277.136719 150.054688 277.132812 150.132812 277.128906 150.210938 C 277.109375 150.578125 277.6875 150.578125 277.710938 150.210938 Z M 277.710938 150.210938 " fill-opacity="1" fill-rule="nonzero"/></g><path fill="#c59163" d="M 194.214844 106.921875 C 192.800781 106.960938 191.402344 106.898438 190 106.734375 C 189.632812 106.691406 189.628906 106.113281 190 106.15625 C 191.402344 106.324219 192.800781 106.386719 194.214844 106.34375 C 194.582031 106.335938 194.582031 106.910156 194.214844 106.921875 Z M 263.007812 106.242188 C 261.0625 106.03125 259.117188 105.988281 257.164062 106.101562 C 256.796875 106.125 256.792969 106.699219 257.164062 106.675781 C 259.117188 106.5625 261.058594 106.605469 263.007812 106.816406 C 263.375 106.855469 263.371094 106.28125 263.007812 106.242188 Z M 263.007812 106.242188 " fill-opacity="1" fill-rule="nonzero"/><path fill="#3e4c60" d="M 43.808594 102.421875 L 111.789062 102.421875 L 111.789062 165.265625 L 43.808594 165.265625 Z M 43.808594 102.421875 " fill-opacity="1" fill-rule="nonzero"/><path fill="#cd5d48" d="M 65.875 161.21875 C 62.808594 159.039062 60.921875 155.472656 60.839844 151.5 C 60.800781 149.554688 60.292969 146.3125 61.457031 144.710938 C 61.550781 145.746094 62.359375 146.871094 63.253906 147.398438 C 62.632812 143.578125 65.050781 141.019531 67.027344 137.957031 C 69.148438 134.664062 69.6875 131.367188 68.648438 127.695312 C 70.5 128.394531 70.847656 130.164062 72.003906 131.410156 C 72.945312 128.144531 72.851562 123.59375 72.441406 120.324219 C 72.09375 117.535156 71.875 114.539062 71.25 111.867188 C 75.230469 115.59375 79.921875 118.089844 82.960938 122.714844 C 84.070312 124.402344 84.613281 126.488281 85.066406 128.460938 C 85.324219 129.566406 85.0625 131.078125 85.542969 132.042969 C 87.714844 130.585938 88.800781 127.746094 91.625 127.066406 C 89.296875 129.546875 89.890625 133.382812 89.890625 136.5 C 89.890625 139.875 89.261719 143.101562 89.230469 146.433594 C 90.800781 144.378906 92.140625 142.066406 94.078125 140.347656 C 94.652344 147.765625 96.203125 155.035156 90.382812 160.6875 C 87.878906 163.117188 84.824219 163.0625 81.507812 163.367188 C 77.703125 163.714844 73.472656 163.773438 69.6875 163.328125 C 67.753906 163.097656 65.375 162.101562 65.875 161.21875 Z M 65.875 161.21875 " fill-opacity="1" fill-rule="nonzero"/><path fill="#f7d96a" d="M 82.714844 162.191406 C 79.875 162.992188 76.140625 163.488281 73.113281 163.195312 C 71.730469 163.0625 67.53125 161.058594 66.105469 158.851562 C 64.703125 156.683594 62.925781 153.324219 63.894531 150.789062 C 64.640625 153.214844 66.984375 154.25 69.367188 154.007812 C 68.976562 150.355469 69 146.984375 69.824219 143.332031 C 70.066406 142.261719 70.710938 139.074219 71.742188 138.554688 C 73.035156 137.90625 73.21875 139.757812 74.417969 140 C 76.1875 140.355469 77.46875 133.855469 77.757812 132.28125 C 78.128906 130.261719 78.335938 127.179688 77.886719 125.175781 C 77.636719 124.054688 76.84375 123.046875 76.863281 121.917969 C 78.035156 122.277344 78.796875 124.007812 79.386719 125.113281 C 80.695312 127.578125 82.058594 130.132812 83.125 132.714844 C 84.621094 136.339844 83.34375 140.207031 84.40625 143.660156 C 84.796875 142.503906 85.210938 141.273438 86.15625 140.433594 C 85.960938 143.605469 82.859375 150.042969 86.914062 152.238281 C 87.757812 151.503906 88.253906 150.460938 89.136719 149.769531 C 90.292969 154.390625 87.628906 160.800781 82.714844 162.191406 Z M 73.710938 135.222656 C 74.816406 134.308594 74.890625 131.683594 74.4375 129.96875 C 73.25 131.078125 72.152344 134.148438 73.710938 135.222656 Z M 74.234375 117.75 L 74.234375 117.234375 C 74.234375 118.667969 74.164062 120.125 74.269531 121.546875 C 75.132812 120.632812 76.066406 118.238281 74.234375 117.75 Z M 87.523438 138.941406 C 87.980469 138.117188 88.40625 135.222656 86.824219 134.65625 C 85.332031 135.59375 86.515625 138.070312 87.523438 138.941406 Z M 87.214844 135.890625 Z M 87.214844 135.890625 " fill-opacity="1" fill-rule="nonzero"/><g clip-path="url(#f677f4708a)"><path fill="#c59163" d="M 143.097656 77.449219 L 147.785156 77.449219 L 147.785156 67.929688 C 147.785156 67.929688 78.316406 68.128906 74.527344 67.929688 C 66.816406 67.519531 13.941406 68.128906 10.289062 67.929688 C 8.023438 67.800781 10.289062 77.449219 10.289062 77.449219 L 15.566406 77.449219 L 15.566406 81.5 L 18.40625 81.5 L 18.40625 161.703125 L 12.925781 161.703125 L 12.925781 167.992188 L 145.957031 167.992188 L 144.945312 162.324219 L 140.480469 161.308594 C 140.480469 161.308594 140.277344 120.1875 140.480469 117.554688 C 140.683594 114.921875 140.074219 80.488281 140.074219 80.488281 L 142.714844 80.285156 Z M 42.234375 161.148438 L 45.269531 105.410156 L 110.714844 102.421875 L 115.023438 163 Z M 42.234375 161.148438 " fill-opacity="1" fill-rule="nonzero"/></g><g clip-path="url(#1fd6ca1ef4)"><path fill="#603c21" d="M 149.765625 167.992188 L 149.765625 174.015625 L 9.625 174.015625 L 9.625 167.992188 Z M 115.210938 106.4375 C 114.839844 118.554688 115.367188 163 115.367188 163 L 107.253906 163 C 107.253906 163 107.246094 114.585938 107.253906 106.21875 C 100.066406 106.058594 91.308594 105.976562 85.511719 106.308594 C 77.878906 106.742188 58.082031 106.59375 45.917969 106.449219 L 45.917969 161.308594 L 38.777344 161.308594 L 39.023438 150.605469 C 38.992188 150.707031 38.910156 150.789062 38.761719 150.769531 C 34.875 150.351562 23.824219 150.296875 19.929688 150.613281 C 19.558594 150.644531 19.5625 150.070312 19.929688 150.039062 C 21.730469 149.894531 30.691406 149.828125 32.492188 149.839844 C 32.703125 146.558594 32.730469 143.277344 32.574219 139.992188 C 32.574219 139.988281 32.574219 139.988281 32.574219 139.984375 C 30.640625 140.046875 22.742188 140.160156 20.808594 140.332031 C 20.4375 140.367188 20.441406 139.789062 20.808594 139.757812 C 24.96875 139.390625 35.105469 139.273438 39.28125 139.398438 L 40.042969 106.371094 C 37.429688 106.335938 35.855469 106.304688 35.855469 106.304688 C 35.855469 106.304688 35.207031 100.621094 35.855469 97.058594 C 35.855469 97.058594 49.878906 96.558594 59.910156 96.316406 C 59.847656 95.292969 59.898438 94.28125 60.058594 93.269531 C 60.058594 93.261719 60.0625 93.257812 60.0625 93.25 C 51.097656 93.050781 42.132812 92.789062 33.167969 92.457031 L 32.558594 105.046875 L 35.207031 105.046875 C 35.578125 105.046875 35.578125 105.621094 35.207031 105.621094 L 32.53125 105.621094 L 32.527344 105.65625 C 32.511719 106.027344 31.933594 106.027344 31.953125 105.65625 L 31.953125 105.621094 L 20.070312 105.621094 C 19.699219 105.621094 19.699219 105.046875 20.070312 105.046875 L 31.984375 105.046875 L 32.59375 92.433594 C 31.195312 92.382812 21.742188 92.332031 20.34375 92.273438 C 19.972656 92.261719 19.972656 91.6875 20.34375 91.699219 C 28.570312 92.023438 44.855469 92.296875 53.082031 92.511719 C 77.847656 93.160156 102.628906 93.28125 127.398438 92.898438 C 127.488281 92.707031 127.792969 92.707031 127.902344 92.890625 C 132.050781 92.824219 136.199219 92.746094 140.34375 92.652344 C 140.714844 92.640625 140.714844 93.21875 140.34375 93.226562 C 136.21875 93.316406 132.089844 93.398438 127.960938 93.464844 C 128.09375 97.109375 128.050781 100.757812 127.832031 104.398438 L 139.382812 104.398438 C 139.753906 104.398438 139.753906 104.972656 139.382812 104.972656 L 127.800781 104.972656 C 127.800781 104.988281 127.796875 105.003906 127.796875 105.019531 C 127.773438 105.386719 127.195312 105.390625 127.222656 105.019531 C 127.222656 105.003906 127.222656 104.988281 127.222656 104.972656 L 120.882812 104.972656 C 120.511719 104.972656 120.511719 104.398438 120.882812 104.398438 L 127.257812 104.398438 C 127.472656 100.757812 127.515625 97.117188 127.386719 93.472656 C 123.476562 93.535156 119.566406 93.582031 115.660156 93.617188 C 112.949219 93.644531 110.234375 93.65625 107.523438 93.671875 C 107.554688 93.714844 107.578125 93.765625 107.574219 93.835938 C 107.527344 94.617188 107.484375 95.394531 107.4375 96.175781 C 114.496094 96.183594 119.582031 96.191406 119.582031 96.191406 L 119.582031 106.59375 C 119.585938 106.597656 117.894531 106.527344 115.210938 106.4375 Z M 39.023438 150.445312 L 39.265625 139.976562 C 37.222656 139.914062 35.183594 139.910156 33.144531 139.96875 C 33.144531 139.976562 33.148438 139.988281 33.148438 139.996094 C 33.304688 143.28125 33.273438 146.566406 33.066406 149.847656 C 34.964844 149.878906 36.863281 149.992188 38.761719 150.199219 C 38.914062 150.210938 39 150.324219 39.023438 150.445312 Z M 83.542969 96.160156 C 83.472656 95.386719 83.398438 94.609375 83.328125 93.832031 C 83.320312 93.734375 83.351562 93.664062 83.410156 93.617188 C 75.804688 93.546875 68.195312 93.429688 60.59375 93.265625 C 60.613281 93.3125 60.625 93.363281 60.617188 93.421875 C 60.46875 94.378906 60.433594 95.335938 60.488281 96.304688 C 62.902344 96.25 65.054688 96.207031 66.6875 96.191406 C 69.425781 96.171875 75.964844 96.160156 83.542969 96.160156 Z M 106.863281 96.179688 C 106.910156 95.398438 106.953125 94.621094 107 93.839844 C 107.003906 93.769531 107.03125 93.71875 107.066406 93.675781 C 99.304688 93.710938 91.546875 93.691406 83.789062 93.625 C 83.851562 93.667969 83.894531 93.738281 83.90625 93.835938 C 83.980469 94.609375 84.050781 95.386719 84.121094 96.164062 C 91.636719 96.160156 100.089844 96.171875 106.863281 96.179688 Z M 23.570312 77.199219 C 54.074219 79.667969 84.710938 78.722656 115.265625 78.015625 C 124.058594 77.8125 132.855469 77.609375 141.648438 77.40625 C 142.019531 77.398438 142.019531 76.824219 141.648438 76.832031 C 111.027344 77.539062 80.347656 78.808594 49.71875 77.992188 C 40.992188 77.761719 32.273438 77.328125 23.570312 76.625 C 23.203125 76.597656 23.203125 77.171875 23.570312 77.199219 Z M 113.777344 82.089844 C 121.773438 81.75 129.761719 81.320312 137.746094 80.804688 C 138.113281 80.78125 138.117188 80.203125 137.746094 80.230469 C 109.230469 82.070312 80.644531 82.785156 52.074219 82.339844 C 44.074219 82.210938 36.074219 81.996094 28.082031 81.691406 C 27.710938 81.679688 27.710938 82.253906 28.082031 82.269531 C 56.632812 83.347656 85.230469 83.292969 113.777344 82.089844 Z M 19.929688 129.328125 C 19.558594 129.335938 19.558594 129.914062 19.929688 129.902344 C 22.148438 129.828125 30.882812 129.753906 33.105469 129.683594 C 33.144531 129.984375 33.617188 129.980469 33.664062 129.664062 C 35.367188 129.605469 37.070312 129.550781 38.769531 129.496094 C 39.140625 129.484375 39.140625 128.910156 38.769531 128.917969 C 37.078125 128.976562 35.382812 129.03125 33.6875 129.085938 C 33.820312 125.375 33.765625 121.664062 33.515625 117.960938 C 33.515625 117.949219 33.507812 117.941406 33.503906 117.929688 L 39.097656 117.929688 C 39.46875 117.929688 39.46875 117.355469 39.097656 117.355469 L 20.652344 117.355469 C 20.28125 117.355469 20.28125 117.929688 20.652344 117.929688 L 32.945312 117.929688 C 32.945312 117.941406 32.9375 117.949219 32.941406 117.960938 C 33.191406 121.671875 33.246094 125.386719 33.113281 129.105469 C 30.890625 129.179688 22.152344 129.253906 19.929688 129.328125 Z M 116.660156 128.714844 C 120.242188 128.691406 123.820312 128.660156 127.402344 128.636719 C 127.402344 128.65625 127.402344 128.675781 127.40625 128.695312 C 127.449219 129.058594 128.023438 129.0625 127.980469 128.695312 C 127.980469 128.671875 127.980469 128.652344 127.976562 128.632812 C 131.671875 128.601562 135.367188 128.578125 139.058594 128.550781 C 139.429688 128.546875 139.429688 127.972656 139.058594 127.976562 C 135.347656 128.003906 131.632812 128.027344 127.921875 128.054688 C 127.617188 124.355469 128.375 120.667969 128.273438 116.960938 C 131.433594 117.027344 134.597656 117.144531 137.757812 117.335938 C 138.128906 117.355469 138.125 116.78125 137.757812 116.757812 C 130.84375 116.347656 123.917969 116.234375 116.992188 116.417969 C 116.621094 116.429688 116.621094 117.003906 116.992188 116.996094 C 120.558594 116.898438 124.128906 116.886719 127.695312 116.945312 C 127.804688 120.660156 127.042969 124.351562 127.347656 128.058594 C 123.789062 128.085938 120.226562 128.113281 116.664062 128.136719 C 116.292969 128.144531 116.292969 128.71875 116.660156 128.714844 Z M 19.792969 161.417969 C 19.421875 161.417969 19.421875 161.992188 19.792969 161.992188 L 38.128906 161.992188 C 38.5 161.992188 38.5 161.417969 38.128906 161.417969 Z M 117.3125 161.667969 C 124.996094 161.765625 132.675781 161.628906 140.351562 161.25 C 140.71875 161.230469 140.722656 160.652344 140.351562 160.671875 C 132.675781 161.050781 124.996094 161.191406 117.3125 161.089844 C 116.941406 161.085938 116.941406 161.660156 117.3125 161.667969 Z M 128.601562 150.210938 C 128.605469 150.140625 128.609375 150.070312 128.613281 149.996094 C 132.207031 150.125 135.800781 150.277344 139.390625 150.449219 C 139.761719 150.46875 139.761719 149.894531 139.390625 149.875 C 135.808594 149.703125 132.226562 149.550781 128.644531 149.421875 C 128.824219 146.019531 128.929688 142.613281 128.953125 139.207031 C 132.320312 139.203125 135.6875 139.109375 139.050781 138.921875 C 139.421875 138.902344 139.421875 138.328125 139.050781 138.347656 C 131.8125 138.75 124.558594 138.734375 117.320312 138.296875 C 116.949219 138.273438 116.953125 138.847656 117.320312 138.871094 C 121.003906 139.09375 124.6875 139.203125 128.378906 139.210938 C 128.351562 142.609375 128.246094 146.003906 128.066406 149.402344 C 124.699219 149.285156 121.332031 149.179688 117.960938 149.101562 C 117.589844 149.09375 117.589844 149.667969 117.960938 149.675781 C 121.320312 149.753906 124.679688 149.855469 128.035156 149.976562 C 128.03125 150.054688 128.027344 150.132812 128.023438 150.210938 C 128.003906 150.578125 128.582031 150.578125 128.601562 150.210938 Z M 128.601562 150.210938 " fill-opacity="1" fill-rule="nonzero"/></g><path fill="#c59163" d="M 45.105469 106.921875 C 43.695312 106.960938 42.292969 106.898438 40.890625 106.734375 C 40.527344 106.691406 40.523438 106.113281 40.890625 106.15625 C 42.292969 106.324219 43.695312 106.386719 45.105469 106.34375 C 45.476562 106.335938 45.476562 106.910156 45.105469 106.921875 Z M 113.898438 106.242188 C 111.957031 106.03125 110.011719 105.988281 108.058594 106.101562 C 107.691406 106.125 107.6875 106.699219 108.058594 106.675781 C 110.011719 106.5625 111.953125 106.605469 113.898438 106.816406 C 114.269531 106.855469 114.265625 106.28125 113.898438 106.242188 Z M 113.898438 106.242188 " fill-opacity="1" fill-rule="nonzero"/></svg>