<svg xmlns="http://www.w3.org/2000/svg" xmlns:xlink="http://www.w3.org/1999/xlink" width="500" zoomAndPan="magnify" viewBox="0 0 375 374.999991" height="500" preserveAspectRatio="xMidYMid meet" version="1.0"><defs><clipPath id="e5883dd032"><path d="M 153 251 L 223 251 L 223 269 L 153 269 Z M 153 251 " clip-rule="nonzero"/></clipPath><clipPath id="012a995946"><path d="M 82.296875 305.152344 L 188.363281 199.089844 L 292.835938 303.5625 L 186.769531 409.628906 Z M 82.296875 305.152344 " clip-rule="nonzero"/></clipPath><clipPath id="8de6ad5dfe"><path d="M 82.296875 305.152344 L 188.363281 199.089844 L 292.835938 303.5625 L 186.769531 409.628906 Z M 82.296875 305.152344 " clip-rule="nonzero"/></clipPath><clipPath id="07407a1856"><path d="M 137 228 L 239 228 L 239 253 L 137 253 Z M 137 228 " clip-rule="nonzero"/></clipPath><clipPath id="074ead9698"><path d="M 82.296875 305.152344 L 188.363281 199.089844 L 292.835938 303.5625 L 186.769531 409.628906 Z M 82.296875 305.152344 " clip-rule="nonzero"/></clipPath><clipPath id="2b00a67c20"><path d="M 82.296875 305.152344 L 188.363281 199.089844 L 292.835938 303.5625 L 186.769531 409.628906 Z M 82.296875 305.152344 " clip-rule="nonzero"/></clipPath><clipPath id="3308b680ba"><path d="M 170 273 L 207 273 L 207 285 L 170 285 Z M 170 273 " clip-rule="nonzero"/></clipPath><clipPath id="233f020e5c"><path d="M 82.296875 305.152344 L 188.363281 199.089844 L 292.835938 303.5625 L 186.769531 409.628906 Z M 82.296875 305.152344 " clip-rule="nonzero"/></clipPath><clipPath id="ea18626e86"><path d="M 82.296875 305.152344 L 188.363281 199.089844 L 292.835938 303.5625 L 186.769531 409.628906 Z M 82.296875 305.152344 " clip-rule="nonzero"/></clipPath><clipPath id="9dccae6345"><path d="M 100 284 L 274 284 L 274 359 L 100 359 Z M 100 284 " clip-rule="nonzero"/></clipPath><clipPath id="1a30a2391b"><path d="M 82.296875 305.152344 L 188.363281 199.089844 L 292.835938 303.5625 L 186.769531 409.628906 Z M 82.296875 305.152344 " clip-rule="nonzero"/></clipPath><clipPath id="2d8fff9e27"><path d="M 82.296875 305.152344 L 188.363281 199.089844 L 292.835938 303.5625 L 186.769531 409.628906 Z M 82.296875 305.152344 " clip-rule="nonzero"/></clipPath><clipPath id="1c4eabe14a"><path d="M 152 100 L 222 100 L 222 119 L 152 119 Z M 152 100 " clip-rule="nonzero"/></clipPath><clipPath id="b86f4c0d0e"><path d="M 292.703125 64.382812 L 186.636719 170.449219 L 82.164062 65.972656 L 188.230469 -40.089844 Z M 292.703125 64.382812 " clip-rule="nonzero"/></clipPath><clipPath id="4fead8e510"><path d="M 292.703125 64.382812 L 186.636719 170.449219 L 82.164062 65.972656 L 188.230469 -40.089844 Z M 292.703125 64.382812 " clip-rule="nonzero"/></clipPath><clipPath id="1d6c73693e"><path d="M 136 116 L 238 116 L 238 142 L 136 142 Z M 136 116 " clip-rule="nonzero"/></clipPath><clipPath id="fe4d07bf5f"><path d="M 292.703125 64.382812 L 186.636719 170.449219 L 82.164062 65.972656 L 188.230469 -40.089844 Z M 292.703125 64.382812 " clip-rule="nonzero"/></clipPath><clipPath id="f493400355"><path d="M 292.703125 64.382812 L 186.636719 170.449219 L 82.164062 65.972656 L 188.230469 -40.089844 Z M 292.703125 64.382812 " clip-rule="nonzero"/></clipPath><clipPath id="bb855c97d7"><path d="M 168 84 L 205 84 L 205 96 L 168 96 Z M 168 84 " clip-rule="nonzero"/></clipPath><clipPath id="3a122075ce"><path d="M 292.703125 64.382812 L 186.636719 170.449219 L 82.164062 65.972656 L 188.230469 -40.089844 Z M 292.703125 64.382812 " clip-rule="nonzero"/></clipPath><clipPath id="502906731d"><path d="M 292.703125 64.382812 L 186.636719 170.449219 L 82.164062 65.972656 L 188.230469 -40.089844 Z M 292.703125 64.382812 " clip-rule="nonzero"/></clipPath><clipPath id="613428874f"><path d="M 101 10 L 275 10 L 275 85 L 101 85 Z M 101 10 " clip-rule="nonzero"/></clipPath><clipPath id="439d8489de"><path d="M 292.703125 64.382812 L 186.636719 170.449219 L 82.164062 65.972656 L 188.230469 -40.089844 Z M 292.703125 64.382812 " clip-rule="nonzero"/></clipPath><clipPath id="8d70351f1d"><path d="M 292.703125 64.382812 L 186.636719 170.449219 L 82.164062 65.972656 L 188.230469 -40.089844 Z M 292.703125 64.382812 " clip-rule="nonzero"/></clipPath><clipPath id="50da1b6ef4"><path d="M 56.25 156.65625 L 318.75 156.65625 L 318.75 218.15625 L 56.25 218.15625 Z M 56.25 156.65625 " clip-rule="nonzero"/></clipPath></defs><g clip-path="url(#e5883dd032)"><g clip-path="url(#012a995946)"><g clip-path="url(#8de6ad5dfe)"><path fill="#ee6c4d" d="M 154.648438 268.171875 C 154.4375 267.960938 154.273438 267.714844 154.15625 267.4375 C 154.042969 267.160156 153.984375 266.871094 153.984375 266.574219 C 153.984375 266.273438 154.042969 265.984375 154.15625 265.707031 C 154.273438 265.429688 154.4375 265.183594 154.648438 264.972656 C 155.746094 263.878906 156.894531 262.839844 158.09375 261.855469 C 159.292969 260.875 160.539062 259.953125 161.828125 259.09375 C 163.117188 258.230469 164.445312 257.4375 165.8125 256.707031 C 167.179688 255.976562 168.582031 255.316406 170.011719 254.722656 C 171.445312 254.128906 172.90625 253.609375 174.386719 253.160156 C 175.871094 252.710938 177.375 252.335938 178.894531 252.03125 C 180.414062 251.730469 181.945312 251.503906 183.488281 251.351562 C 185.03125 251.199219 186.578125 251.125 188.128906 251.125 C 189.679688 251.125 191.226562 251.199219 192.769531 251.351562 C 194.3125 251.503906 195.84375 251.730469 197.363281 252.03125 C 198.886719 252.335938 200.386719 252.710938 201.871094 253.160156 C 203.355469 253.609375 204.8125 254.128906 206.246094 254.722656 C 207.679688 255.316406 209.078125 255.976562 210.445312 256.707031 C 211.8125 257.4375 213.144531 258.230469 214.433594 259.09375 C 215.722656 259.953125 216.96875 260.875 218.167969 261.855469 C 219.367188 262.839844 220.515625 263.878906 221.609375 264.972656 C 221.824219 265.183594 221.988281 265.429688 222.101562 265.707031 C 222.214844 265.984375 222.273438 266.273438 222.273438 266.574219 C 222.273438 266.871094 222.214844 267.160156 222.101562 267.4375 C 221.988281 267.714844 221.824219 267.960938 221.609375 268.171875 C 221.398438 268.386719 221.15625 268.546875 220.878906 268.664062 C 220.601562 268.777344 220.3125 268.835938 220.011719 268.835938 C 219.710938 268.835938 219.421875 268.777344 219.144531 268.664062 C 218.867188 268.546875 218.625 268.386719 218.410156 268.171875 C 217.417969 267.183594 216.378906 266.242188 215.296875 265.355469 C 214.210938 264.464844 213.085938 263.632812 211.917969 262.855469 C 210.753906 262.078125 209.550781 261.359375 208.3125 260.699219 C 207.078125 260.039062 205.808594 259.441406 204.515625 258.902344 C 203.21875 258.367188 201.898438 257.898438 200.558594 257.492188 C 199.214844 257.082031 197.855469 256.746094 196.480469 256.472656 C 195.105469 256.199219 193.722656 255.992188 192.324219 255.855469 C 190.929688 255.71875 189.53125 255.648438 188.128906 255.648438 C 186.726562 255.648438 185.328125 255.71875 183.933594 255.855469 C 182.539062 255.992188 181.152344 256.199219 179.777344 256.472656 C 178.402344 256.746094 177.042969 257.082031 175.703125 257.492188 C 174.359375 257.898438 173.042969 258.367188 171.746094 258.902344 C 170.449219 259.441406 169.183594 260.039062 167.945312 260.699219 C 166.710938 261.359375 165.507812 262.078125 164.339844 262.855469 C 163.175781 263.632812 162.050781 264.464844 160.964844 265.355469 C 159.878906 266.242188 158.839844 267.183594 157.847656 268.171875 C 157.636719 268.386719 157.390625 268.546875 157.113281 268.664062 C 156.835938 268.777344 156.546875 268.835938 156.25 268.835938 C 155.949219 268.835938 155.660156 268.777344 155.382812 268.664062 C 155.105469 268.546875 154.859375 268.386719 154.648438 268.171875 Z M 154.648438 268.171875 " fill-opacity="1" fill-rule="nonzero"/></g></g></g><g clip-path="url(#07407a1856)"><g clip-path="url(#074ead9698)"><g clip-path="url(#2b00a67c20)"><path fill="#ee6c4d" d="M 237.746094 248.835938 C 237.960938 249.046875 238.125 249.292969 238.238281 249.570312 C 238.351562 249.847656 238.410156 250.136719 238.410156 250.4375 C 238.410156 250.734375 238.351562 251.023438 238.238281 251.300781 C 238.125 251.578125 237.960938 251.824219 237.746094 252.035156 C 237.535156 252.25 237.289062 252.410156 237.011719 252.527344 C 236.738281 252.640625 236.449219 252.699219 236.148438 252.699219 C 235.847656 252.699219 235.558594 252.640625 235.28125 252.527344 C 235.003906 252.410156 234.761719 252.25 234.546875 252.035156 C 233.789062 251.277344 233.007812 250.539062 232.210938 249.816406 C 231.417969 249.09375 230.601562 248.394531 229.773438 247.714844 C 228.941406 247.03125 228.09375 246.371094 227.230469 245.734375 C 226.367188 245.09375 225.488281 244.476562 224.59375 243.878906 C 223.703125 243.28125 222.792969 242.707031 221.871094 242.15625 C 220.953125 241.605469 220.015625 241.074219 219.070312 240.570312 C 218.121094 240.0625 217.160156 239.582031 216.191406 239.121094 C 215.21875 238.664062 214.238281 238.226562 213.246094 237.816406 C 212.253906 237.40625 211.25 237.019531 210.238281 236.660156 C 209.226562 236.296875 208.207031 235.960938 207.179688 235.648438 C 206.152344 235.335938 205.117188 235.050781 204.074219 234.789062 C 203.03125 234.527344 201.984375 234.292969 200.929688 234.085938 C 199.878906 233.875 198.820312 233.691406 197.757812 233.535156 C 196.695312 233.375 195.628906 233.246094 194.558594 233.140625 C 193.488281 233.035156 192.417969 232.953125 191.34375 232.902344 C 190.273438 232.847656 189.199219 232.824219 188.125 232.820312 C 187.050781 232.820312 185.976562 232.847656 184.902344 232.902344 C 183.832031 232.953125 182.761719 233.03125 181.691406 233.136719 C 180.621094 233.242188 179.554688 233.371094 178.492188 233.53125 C 177.429688 233.6875 176.371094 233.871094 175.320312 234.078125 C 174.265625 234.289062 173.21875 234.523438 172.175781 234.785156 C 171.132812 235.042969 170.097656 235.332031 169.070312 235.640625 C 168.042969 235.953125 167.019531 236.289062 166.007812 236.652344 C 164.996094 237.011719 163.996094 237.398438 163.003906 237.808594 C 162.011719 238.21875 161.027344 238.652344 160.054688 239.113281 C 159.085938 239.570312 158.125 240.054688 157.175781 240.558594 C 156.230469 241.0625 155.296875 241.59375 154.375 242.144531 C 153.453125 242.695312 152.542969 243.269531 151.648438 243.867188 C 150.757812 244.460938 149.878906 245.078125 149.015625 245.71875 C 148.152344 246.359375 147.304688 247.015625 146.472656 247.699219 C 145.640625 248.378906 144.828125 249.078125 144.03125 249.800781 C 143.234375 250.519531 142.457031 251.261719 141.695312 252.019531 C 141.484375 252.230469 141.238281 252.394531 140.960938 252.507812 C 140.683594 252.625 140.394531 252.683594 140.09375 252.683594 C 139.792969 252.683594 139.507812 252.625 139.230469 252.507812 C 138.953125 252.394531 138.707031 252.230469 138.496094 252.019531 C 138.28125 251.808594 138.117188 251.5625 138.003906 251.285156 C 137.890625 251.007812 137.832031 250.71875 137.832031 250.417969 C 137.832031 250.117188 137.890625 249.832031 138.003906 249.554688 C 138.117188 249.277344 138.28125 249.03125 138.496094 248.820312 C 139.308594 248.007812 140.140625 247.21875 140.992188 246.449219 C 141.84375 245.679688 142.714844 244.929688 143.601562 244.203125 C 144.492188 243.472656 145.398438 242.769531 146.320312 242.085938 C 147.242188 241.402344 148.183594 240.742188 149.136719 240.105469 C 150.09375 239.46875 151.0625 238.855469 152.046875 238.265625 C 153.035156 237.679688 154.03125 237.113281 155.046875 236.574219 C 156.058594 236.03125 157.085938 235.515625 158.125 235.027344 C 159.160156 234.539062 160.210938 234.074219 161.273438 233.632812 C 162.335938 233.195312 163.40625 232.785156 164.488281 232.398438 C 165.566406 232.011719 166.65625 231.652344 167.757812 231.320312 C 168.855469 230.988281 169.960938 230.679688 171.078125 230.402344 C 172.191406 230.125 173.3125 229.875 174.4375 229.648438 C 175.5625 229.425781 176.695312 229.230469 177.828125 229.0625 C 178.964844 228.894531 180.105469 228.753906 181.246094 228.644531 C 182.390625 228.53125 183.535156 228.445312 184.683594 228.390625 C 185.828125 228.335938 186.976562 228.304688 188.125 228.304688 C 189.273438 228.308594 190.421875 228.335938 191.566406 228.390625 C 192.714844 228.449219 193.859375 228.53125 195 228.644531 C 196.144531 228.757812 197.285156 228.898438 198.417969 229.066406 C 199.554688 229.234375 200.6875 229.429688 201.8125 229.65625 C 202.9375 229.878906 204.058594 230.128906 205.171875 230.410156 C 206.285156 230.6875 207.390625 230.992188 208.492188 231.328125 C 209.589844 231.660156 210.679688 232.019531 211.761719 232.40625 C 212.84375 232.792969 213.914062 233.203125 214.976562 233.644531 C 216.035156 234.082031 217.085938 234.546875 218.125 235.039062 C 219.160156 235.527344 220.1875 236.042969 221.199219 236.585938 C 222.214844 237.125 223.210938 237.691406 224.199219 238.28125 C 225.183594 238.871094 226.152344 239.484375 227.109375 240.121094 C 228.0625 240.757812 229.003906 241.417969 229.925781 242.101562 C 230.847656 242.785156 231.753906 243.488281 232.640625 244.21875 C 233.53125 244.945312 234.398438 245.695312 235.25 246.464844 C 236.101562 247.234375 236.933594 248.023438 237.746094 248.835938 Z M 237.746094 248.835938 " fill-opacity="1" fill-rule="nonzero"/></g></g></g><g clip-path="url(#3308b680ba)"><g clip-path="url(#233f020e5c)"><g clip-path="url(#ea18626e86)"><path fill="#ee6c4d" d="M 170.785156 284.308594 C 170.574219 284.097656 170.410156 283.851562 170.292969 283.574219 C 170.179688 283.296875 170.121094 283.007812 170.121094 282.710938 C 170.121094 282.410156 170.179688 282.121094 170.292969 281.84375 C 170.410156 281.566406 170.574219 281.320312 170.785156 281.109375 C 171.355469 280.542969 171.949219 280.007812 172.570312 279.503906 C 173.191406 278.996094 173.835938 278.523438 174.503906 278.078125 C 175.171875 277.636719 175.859375 277.226562 176.566406 276.851562 C 177.273438 276.476562 178 276.136719 178.742188 275.832031 C 179.484375 275.527344 180.238281 275.261719 181.003906 275.03125 C 181.773438 274.800781 182.546875 274.605469 183.335938 274.453125 C 184.121094 274.296875 184.914062 274.183594 185.710938 274.105469 C 186.507812 274.027344 187.308594 273.992188 188.109375 273.992188 C 188.910156 273.992188 189.710938 274.035156 190.507812 274.113281 C 191.304688 274.195312 192.097656 274.3125 192.882812 274.472656 C 193.667969 274.628906 194.445312 274.824219 195.210938 275.058594 C 195.976562 275.292969 196.730469 275.5625 197.472656 275.867188 C 198.210938 276.175781 198.933594 276.519531 199.640625 276.898438 C 200.347656 277.277344 201.035156 277.6875 201.699219 278.132812 C 202.367188 278.578125 203.007812 279.054688 203.628906 279.5625 C 204.246094 280.074219 204.839844 280.609375 205.40625 281.175781 C 205.621094 281.386719 205.789062 281.632812 205.90625 281.910156 C 206.019531 282.1875 206.078125 282.476562 206.078125 282.777344 C 206.078125 283.078125 206.019531 283.367188 205.90625 283.644531 C 205.789062 283.921875 205.621094 284.167969 205.40625 284.378906 C 205.1875 284.574219 204.9375 284.722656 204.664062 284.828125 C 204.386719 284.933594 204.101562 284.984375 203.808594 284.984375 C 203.511719 284.984375 203.226562 284.933594 202.949219 284.828125 C 202.675781 284.722656 202.425781 284.574219 202.207031 284.378906 C 201.742188 283.914062 201.257812 283.476562 200.753906 283.058594 C 200.246094 282.644531 199.722656 282.253906 199.179688 281.890625 C 198.632812 281.527344 198.074219 281.191406 197.496094 280.882812 C 196.917969 280.574219 196.328125 280.292969 195.722656 280.042969 C 195.117188 279.792969 194.503906 279.570312 193.875 279.382812 C 193.25 279.191406 192.613281 279.03125 191.972656 278.90625 C 191.332031 278.777344 190.683594 278.679688 190.03125 278.617188 C 189.382812 278.550781 188.726562 278.519531 188.074219 278.519531 C 187.417969 278.519531 186.765625 278.550781 186.113281 278.613281 C 185.464844 278.675781 184.816406 278.773438 184.175781 278.898438 C 183.53125 279.027344 182.898438 279.183594 182.269531 279.375 C 181.644531 279.5625 181.027344 279.785156 180.421875 280.035156 C 179.816406 280.285156 179.226562 280.5625 178.648438 280.871094 C 178.070312 281.179688 177.511719 281.515625 176.964844 281.878906 C 176.421875 282.242188 175.894531 282.628906 175.390625 283.042969 C 174.882812 283.460938 174.398438 283.898438 173.933594 284.359375 C 173.71875 284.5625 173.476562 284.714844 173.199219 284.820312 C 172.925781 284.925781 172.644531 284.976562 172.347656 284.972656 C 172.054688 284.96875 171.773438 284.90625 171.503906 284.792969 C 171.230469 284.679688 170.992188 284.515625 170.785156 284.308594 Z M 170.785156 284.308594 " fill-opacity="1" fill-rule="nonzero"/></g></g></g><g clip-path="url(#9dccae6345)"><g clip-path="url(#1a30a2391b)"><g clip-path="url(#2d8fff9e27)"><path fill="#ee6c4d" d="M 266.445312 288.496094 L 269.542969 291.59375 C 270.75 292.808594 271.679688 294.210938 272.328125 295.792969 C 272.980469 297.375 273.304688 299.023438 273.304688 300.734375 L 273.238281 317.417969 C 273.234375 319.097656 272.910156 320.71875 272.265625 322.273438 C 271.625 323.832031 270.710938 325.207031 269.527344 326.402344 L 269.152344 326.777344 C 267.765625 328.050781 266.347656 329.289062 264.90625 330.496094 C 263.460938 331.703125 261.988281 332.878906 260.488281 334.015625 C 258.988281 335.15625 257.464844 336.257812 255.914062 337.324219 C 254.363281 338.394531 252.789062 339.425781 251.191406 340.421875 C 249.59375 341.414062 247.972656 342.371094 246.328125 343.292969 C 244.6875 344.210938 243.023438 345.09375 241.339844 345.933594 C 239.65625 346.777344 237.953125 347.582031 236.234375 348.34375 C 234.511719 349.109375 232.773438 349.832031 231.019531 350.511719 C 229.265625 351.195312 227.496094 351.835938 225.710938 352.4375 C 223.929688 353.039062 222.132812 353.597656 220.320312 354.117188 C 218.511719 354.632812 216.691406 355.109375 214.855469 355.539062 C 213.023438 355.972656 211.183594 356.363281 209.332031 356.710938 C 207.484375 357.058594 205.625 357.363281 203.761719 357.621094 C 201.898438 357.882812 200.027344 358.101562 198.152344 358.277344 C 196.277344 358.449219 194.402344 358.582031 192.519531 358.667969 C 190.640625 358.753906 188.757812 358.796875 186.875 358.796875 C 184.992188 358.796875 183.109375 358.753906 181.230469 358.667969 C 179.351562 358.578125 177.472656 358.449219 175.597656 358.273438 C 173.722656 358.097656 171.855469 357.878906 169.988281 357.621094 C 168.125 357.359375 166.269531 357.054688 164.417969 356.707031 C 162.566406 356.359375 160.726562 355.96875 158.894531 355.535156 C 157.0625 355.101562 155.242188 354.625 153.429688 354.109375 C 151.621094 353.589844 149.824219 353.03125 148.039062 352.429688 C 146.253906 351.828125 144.488281 351.1875 142.730469 350.503906 C 140.976562 349.820312 139.242188 349.097656 137.519531 348.332031 C 135.796875 347.570312 134.097656 346.765625 132.414062 345.925781 C 130.730469 345.082031 129.066406 344.199219 127.425781 343.28125 C 125.78125 342.359375 124.160156 341.402344 122.5625 340.40625 C 120.964844 339.410156 119.390625 338.378906 117.839844 337.3125 C 116.289062 336.242188 114.765625 335.140625 113.265625 334 C 111.769531 332.863281 110.296875 331.6875 108.851562 330.480469 C 107.40625 329.273438 105.992188 328.035156 104.605469 326.761719 C 103.269531 325.558594 102.238281 324.136719 101.507812 322.492188 C 100.777344 320.847656 100.414062 319.128906 100.417969 317.332031 L 100.433594 300.734375 C 100.433594 299.023438 100.761719 297.375 101.414062 295.792969 C 102.0625 294.210938 102.992188 292.8125 104.195312 291.59375 L 107.242188 288.546875 C 107.703125 288.089844 108.195312 287.667969 108.71875 287.285156 C 109.242188 286.898438 109.789062 286.558594 110.363281 286.257812 C 110.9375 285.953125 111.535156 285.699219 112.148438 285.488281 C 112.761719 285.277344 113.386719 285.109375 114.023438 284.992188 C 114.664062 284.875 115.308594 284.808594 115.957031 284.789062 C 116.605469 284.769531 117.25 284.796875 117.894531 284.875 C 118.539062 284.953125 119.175781 285.078125 119.800781 285.25 C 120.425781 285.425781 121.035156 285.644531 121.625 285.910156 L 148.519531 298.097656 C 149.613281 298.597656 150.613281 299.238281 151.527344 300.019531 C 152.441406 300.800781 153.230469 301.695312 153.894531 302.695312 C 154.558594 303.695312 155.074219 304.769531 155.4375 305.914062 C 155.804688 307.058594 156.007812 308.230469 156.042969 309.433594 L 156.214844 315.695312 C 156.226562 316.167969 156.277344 316.636719 156.371094 317.101562 C 156.464844 317.5625 156.59375 318.015625 156.765625 318.457031 C 156.933594 318.898438 157.140625 319.320312 157.382812 319.726562 C 157.625 320.132812 157.902344 320.515625 158.207031 320.875 C 158.515625 321.230469 158.851562 321.5625 159.214844 321.863281 C 159.582031 322.164062 159.96875 322.429688 160.378906 322.667969 C 160.789062 322.902344 161.214844 323.097656 161.660156 323.261719 C 162.101562 323.421875 162.558594 323.546875 163.023438 323.628906 C 170.921875 325.089844 178.882812 325.828125 186.914062 325.851562 C 194.945312 325.875 202.914062 325.179688 210.820312 323.765625 C 211.273438 323.667969 211.714844 323.535156 212.148438 323.367188 C 212.578125 323.195312 212.992188 322.992188 213.390625 322.753906 C 213.789062 322.511719 214.164062 322.242188 214.515625 321.941406 C 214.867188 321.636719 215.191406 321.308594 215.488281 320.953125 C 215.785156 320.59375 216.050781 320.214844 216.28125 319.816406 C 216.515625 319.414062 216.714844 318.996094 216.878906 318.5625 C 217.042969 318.128906 217.167969 317.683594 217.257812 317.230469 C 217.34375 316.773438 217.394531 316.3125 217.40625 315.851562 L 217.578125 309.484375 C 217.617188 308.28125 217.816406 307.109375 218.183594 305.964844 C 218.546875 304.820312 219.0625 303.746094 219.726562 302.746094 C 220.390625 301.746094 221.179688 300.851562 222.09375 300.070312 C 223.007812 299.289062 224.007812 298.648438 225.101562 298.148438 L 251.996094 285.960938 C 252.585938 285.6875 253.195312 285.460938 253.820312 285.28125 C 254.449219 285.101562 255.085938 284.96875 255.730469 284.886719 C 256.375 284.804688 257.023438 284.769531 257.675781 284.785156 C 258.328125 284.796875 258.972656 284.863281 259.617188 284.972656 C 260.257812 285.085938 260.886719 285.246094 261.503906 285.457031 C 262.121094 285.664062 262.71875 285.917969 263.300781 286.214844 C 263.878906 286.515625 264.433594 286.855469 264.960938 287.238281 C 265.488281 287.617188 265.980469 288.039062 266.445312 288.496094 Z M 266.445312 288.496094 " fill-opacity="1" fill-rule="nonzero"/></g></g></g><g clip-path="url(#1c4eabe14a)"><g clip-path="url(#b86f4c0d0e)"><g clip-path="url(#4fead8e510)"><path fill="#ee6c4d" d="M 220.351562 101.363281 C 220.5625 101.578125 220.726562 101.820312 220.84375 102.097656 C 220.957031 102.375 221.015625 102.664062 221.015625 102.964844 C 221.015625 103.265625 220.957031 103.554688 220.84375 103.832031 C 220.726562 104.109375 220.5625 104.351562 220.351562 104.566406 C 219.253906 105.660156 218.105469 106.699219 216.90625 107.679688 C 215.707031 108.664062 214.464844 109.585938 213.171875 110.445312 C 211.882812 111.304688 210.554688 112.101562 209.1875 112.832031 C 207.820312 113.5625 206.417969 114.222656 204.988281 114.816406 C 203.554688 115.40625 202.09375 115.929688 200.613281 116.378906 C 199.128906 116.828125 197.625 117.203125 196.105469 117.503906 C 194.585938 117.808594 193.054688 118.035156 191.511719 118.1875 C 189.96875 118.335938 188.421875 118.414062 186.871094 118.414062 C 185.320312 118.414062 183.773438 118.335938 182.230469 118.1875 C 180.6875 118.035156 179.15625 117.808594 177.636719 117.503906 C 176.113281 117.203125 174.613281 116.828125 173.128906 116.378906 C 171.644531 115.929688 170.1875 115.40625 168.753906 114.816406 C 167.320312 114.222656 165.921875 113.5625 164.554688 112.832031 C 163.1875 112.101562 161.855469 111.304688 160.566406 110.445312 C 159.277344 109.585938 158.03125 108.664062 156.832031 107.679688 C 155.632812 106.699219 154.484375 105.660156 153.390625 104.566406 C 153.175781 104.351562 153.011719 104.109375 152.898438 103.832031 C 152.785156 103.554688 152.726562 103.265625 152.726562 102.964844 C 152.726562 102.664062 152.785156 102.375 152.898438 102.097656 C 153.011719 101.820312 153.175781 101.578125 153.390625 101.363281 C 153.601562 101.152344 153.84375 100.988281 154.121094 100.875 C 154.398438 100.757812 154.6875 100.703125 154.988281 100.703125 C 155.289062 100.703125 155.578125 100.757812 155.855469 100.875 C 156.132812 100.988281 156.375 101.152344 156.589844 101.363281 C 157.582031 102.355469 158.621094 103.292969 159.703125 104.183594 C 160.789062 105.070312 161.914062 105.90625 163.082031 106.683594 C 164.246094 107.460938 165.449219 108.179688 166.6875 108.839844 C 167.921875 109.5 169.191406 110.097656 170.484375 110.632812 C 171.78125 111.167969 173.101562 111.640625 174.441406 112.046875 C 175.785156 112.453125 177.144531 112.792969 178.519531 113.066406 C 179.894531 113.339844 181.277344 113.546875 182.675781 113.683594 C 184.070312 113.820312 185.46875 113.886719 186.871094 113.886719 C 188.273438 113.886719 189.671875 113.820312 191.066406 113.683594 C 192.460938 113.546875 193.847656 113.339844 195.222656 113.066406 C 196.597656 112.792969 197.957031 112.453125 199.296875 112.046875 C 200.640625 111.640625 201.957031 111.167969 203.253906 110.632812 C 204.550781 110.097656 205.816406 109.5 207.054688 108.839844 C 208.289062 108.179688 209.492188 107.460938 210.660156 106.683594 C 211.824219 105.90625 212.949219 105.070312 214.035156 104.183594 C 215.121094 103.292969 216.160156 102.355469 217.152344 101.363281 C 217.363281 101.152344 217.609375 100.988281 217.886719 100.875 C 218.164062 100.757812 218.453125 100.703125 218.75 100.703125 C 219.050781 100.703125 219.339844 100.757812 219.617188 100.875 C 219.894531 100.988281 220.140625 101.152344 220.351562 101.363281 Z M 220.351562 101.363281 " fill-opacity="1" fill-rule="nonzero"/></g></g></g><g clip-path="url(#1d6c73693e)"><g clip-path="url(#fe4d07bf5f)"><g clip-path="url(#f493400355)"><path fill="#ee6c4d" d="M 137.253906 120.703125 C 137.039062 120.488281 136.875 120.246094 136.761719 119.96875 C 136.648438 119.691406 136.589844 119.402344 136.589844 119.101562 C 136.589844 118.800781 136.648438 118.511719 136.761719 118.234375 C 136.875 117.957031 137.039062 117.714844 137.253906 117.5 C 137.464844 117.289062 137.710938 117.125 137.988281 117.011719 C 138.261719 116.894531 138.550781 116.839844 138.851562 116.839844 C 139.152344 116.839844 139.441406 116.894531 139.71875 117.011719 C 139.996094 117.125 140.238281 117.289062 140.453125 117.5 C 141.210938 118.261719 141.992188 119 142.789062 119.722656 C 143.582031 120.441406 144.398438 121.144531 145.226562 121.824219 C 146.058594 122.503906 146.90625 123.164062 147.769531 123.804688 C 148.632812 124.445312 149.511719 125.0625 150.40625 125.660156 C 151.296875 126.253906 152.207031 126.828125 153.128906 127.382812 C 154.046875 127.933594 154.984375 128.460938 155.929688 128.96875 C 156.878906 129.472656 157.839844 129.957031 158.808594 130.414062 C 159.78125 130.875 160.761719 131.308594 161.753906 131.71875 C 162.746094 132.132812 163.75 132.515625 164.761719 132.878906 C 165.773438 133.242188 166.792969 133.578125 167.820312 133.890625 C 168.847656 134.199219 169.882812 134.488281 170.925781 134.746094 C 171.96875 135.007812 173.015625 135.242188 174.070312 135.453125 C 175.121094 135.664062 176.179688 135.847656 177.242188 136.003906 C 178.304688 136.160156 179.371094 136.292969 180.441406 136.398438 C 181.511719 136.503906 182.582031 136.582031 183.65625 136.636719 C 184.726562 136.6875 185.800781 136.714844 186.875 136.714844 C 187.949219 136.714844 189.023438 136.691406 190.097656 136.636719 C 191.167969 136.585938 192.238281 136.507812 193.308594 136.402344 C 194.378906 136.296875 195.445312 136.164062 196.507812 136.007812 C 197.570312 135.851562 198.628906 135.667969 199.679688 135.457031 C 200.734375 135.25 201.78125 135.015625 202.824219 134.753906 C 203.867188 134.492188 204.902344 134.207031 205.929688 133.894531 C 206.957031 133.585938 207.980469 133.25 208.992188 132.886719 C 210.003906 132.527344 211.003906 132.140625 211.996094 131.730469 C 212.988281 131.320312 213.972656 130.882812 214.945312 130.425781 C 215.914062 129.96875 216.875 129.484375 217.824219 128.980469 C 218.769531 128.472656 219.703125 127.945312 220.625 127.394531 C 221.546875 126.84375 222.457031 126.269531 223.351562 125.671875 C 224.242188 125.074219 225.121094 124.457031 225.984375 123.820312 C 226.847656 123.179688 227.695312 122.519531 228.527344 121.839844 C 229.359375 121.160156 230.171875 120.457031 230.96875 119.738281 C 231.765625 119.015625 232.542969 118.277344 233.304688 117.519531 C 233.515625 117.304688 233.761719 117.144531 234.039062 117.027344 C 234.316406 116.914062 234.605469 116.855469 234.90625 116.855469 C 235.207031 116.855469 235.492188 116.914062 235.769531 117.027344 C 236.046875 117.144531 236.292969 117.304688 236.503906 117.519531 C 236.71875 117.730469 236.882812 117.976562 236.996094 118.253906 C 237.109375 118.53125 237.167969 118.820312 237.167969 119.117188 C 237.167969 119.417969 237.109375 119.707031 236.996094 119.984375 C 236.882812 120.261719 236.71875 120.507812 236.503906 120.71875 C 235.691406 121.53125 234.859375 122.320312 234.007812 123.089844 C 233.15625 123.859375 232.285156 124.609375 231.398438 125.335938 C 230.507812 126.0625 229.601562 126.769531 228.679688 127.449219 C 227.757812 128.132812 226.816406 128.792969 225.863281 129.429688 C 224.90625 130.066406 223.9375 130.679688 222.953125 131.269531 C 221.964844 131.859375 220.96875 132.425781 219.953125 132.964844 C 218.941406 133.503906 217.914062 134.019531 216.875 134.511719 C 215.839844 135 214.789062 135.464844 213.726562 135.902344 C 212.664062 136.339844 211.59375 136.753906 210.511719 137.140625 C 209.433594 137.527344 208.34375 137.886719 207.242188 138.21875 C 206.144531 138.550781 205.039062 138.855469 203.921875 139.132812 C 202.808594 139.414062 201.6875 139.664062 200.5625 139.886719 C 199.4375 140.109375 198.304688 140.308594 197.171875 140.476562 C 196.035156 140.644531 194.894531 140.78125 193.753906 140.894531 C 192.609375 141.007812 191.464844 141.089844 190.316406 141.148438 C 189.171875 141.203125 188.023438 141.230469 186.875 141.230469 C 185.726562 141.230469 184.578125 141.203125 183.433594 141.144531 C 182.285156 141.089844 181.140625 141.003906 180 140.894531 C 178.855469 140.78125 177.714844 140.640625 176.582031 140.472656 C 175.445312 140.304688 174.3125 140.105469 173.1875 139.882812 C 172.0625 139.660156 170.941406 139.40625 169.828125 139.128906 C 168.714844 138.851562 167.609375 138.542969 166.507812 138.210938 C 165.410156 137.878906 164.320312 137.519531 163.238281 137.132812 C 162.15625 136.746094 161.085938 136.332031 160.023438 135.894531 C 158.964844 135.453125 157.914062 134.992188 156.875 134.5 C 155.839844 134.007812 154.8125 133.492188 153.800781 132.953125 C 152.785156 132.414062 151.789062 131.847656 150.800781 131.257812 C 149.816406 130.667969 148.847656 130.054688 147.890625 129.417969 C 146.9375 128.78125 145.996094 128.121094 145.074219 127.4375 C 144.152344 126.753906 143.246094 126.046875 142.359375 125.320312 C 141.46875 124.59375 140.601562 123.84375 139.75 123.074219 C 138.898438 122.304688 138.066406 121.511719 137.253906 120.703125 Z M 137.253906 120.703125 " fill-opacity="1" fill-rule="nonzero"/></g></g></g><g clip-path="url(#bb855c97d7)"><g clip-path="url(#3a122075ce)"><g clip-path="url(#502906731d)"><path fill="#ee6c4d" d="M 204.214844 85.230469 C 204.425781 85.441406 204.589844 85.683594 204.707031 85.960938 C 204.820312 86.238281 204.878906 86.527344 204.878906 86.828125 C 204.878906 87.128906 204.820312 87.417969 204.707031 87.695312 C 204.589844 87.972656 204.425781 88.214844 204.214844 88.429688 C 203.644531 88.992188 203.050781 89.527344 202.429688 90.035156 C 201.808594 90.539062 201.164062 91.015625 200.496094 91.457031 C 199.828125 91.902344 199.140625 92.308594 198.433594 92.6875 C 197.726562 93.0625 197 93.402344 196.257812 93.707031 C 195.515625 94.011719 194.761719 94.277344 193.996094 94.507812 C 193.226562 94.738281 192.453125 94.929688 191.664062 95.085938 C 190.878906 95.238281 190.085938 95.355469 189.289062 95.433594 C 188.492188 95.507812 187.691406 95.546875 186.890625 95.546875 C 186.089844 95.542969 185.289062 95.503906 184.492188 95.421875 C 183.695312 95.34375 182.902344 95.222656 182.117188 95.066406 C 181.332031 94.910156 180.554688 94.714844 179.789062 94.480469 C 179.023438 94.246094 178.269531 93.976562 177.527344 93.667969 C 176.789062 93.363281 176.066406 93.019531 175.359375 92.640625 C 174.652344 92.261719 173.964844 91.851562 173.300781 91.40625 C 172.632812 90.957031 171.992188 90.480469 171.371094 89.972656 C 170.753906 89.464844 170.160156 88.925781 169.59375 88.359375 C 169.378906 88.148438 169.210938 87.90625 169.09375 87.628906 C 168.980469 87.351562 168.921875 87.0625 168.921875 86.761719 C 168.921875 86.460938 168.980469 86.171875 169.09375 85.894531 C 169.210938 85.613281 169.378906 85.371094 169.59375 85.160156 C 169.8125 84.964844 170.0625 84.8125 170.335938 84.710938 C 170.613281 84.605469 170.898438 84.550781 171.191406 84.550781 C 171.488281 84.550781 171.773438 84.605469 172.050781 84.710938 C 172.324219 84.8125 172.574219 84.964844 172.792969 85.160156 C 173.257812 85.625 173.742188 86.0625 174.246094 86.476562 C 174.753906 86.894531 175.277344 87.28125 175.820312 87.648438 C 176.367188 88.011719 176.925781 88.347656 177.503906 88.65625 C 178.082031 88.964844 178.671875 89.242188 179.277344 89.496094 C 179.882812 89.746094 180.496094 89.964844 181.125 90.15625 C 181.75 90.347656 182.386719 90.503906 183.027344 90.632812 C 183.667969 90.761719 184.316406 90.859375 184.96875 90.921875 C 185.617188 90.988281 186.273438 91.019531 186.925781 91.019531 C 187.582031 91.019531 188.234375 90.988281 188.886719 90.925781 C 189.535156 90.859375 190.183594 90.765625 190.824219 90.636719 C 191.46875 90.511719 192.101562 90.351562 192.730469 90.164062 C 193.355469 89.972656 193.972656 89.753906 194.578125 89.503906 C 195.183594 89.253906 195.773438 88.976562 196.351562 88.667969 C 196.929688 88.359375 197.488281 88.023438 198.035156 87.660156 C 198.578125 87.296875 199.105469 86.90625 199.609375 86.492188 C 200.117188 86.078125 200.601562 85.640625 201.066406 85.175781 C 201.28125 84.976562 201.523438 84.824219 201.800781 84.71875 C 202.074219 84.609375 202.355469 84.558594 202.652344 84.566406 C 202.945312 84.570312 203.226562 84.628906 203.496094 84.746094 C 203.769531 84.859375 204.007812 85.019531 204.214844 85.230469 Z M 204.214844 85.230469 " fill-opacity="1" fill-rule="nonzero"/></g></g></g><g clip-path="url(#613428874f)"><g clip-path="url(#439d8489de)"><g clip-path="url(#8d70351f1d)"><path fill="#ee6c4d" d="M 108.554688 81.042969 L 105.457031 77.941406 C 104.25 76.726562 103.320312 75.328125 102.671875 73.746094 C 102.019531 72.164062 101.695312 70.515625 101.695312 68.800781 L 101.761719 52.121094 C 101.765625 50.4375 102.089844 48.820312 102.734375 47.261719 C 103.375 45.707031 104.289062 44.332031 105.472656 43.132812 L 105.847656 42.757812 C 107.234375 41.488281 108.652344 40.246094 110.09375 39.039062 C 111.539062 37.832031 113.011719 36.660156 114.511719 35.519531 C 116.011719 34.382812 117.535156 33.28125 119.085938 32.210938 C 120.636719 31.144531 122.210938 30.113281 123.808594 29.117188 C 125.40625 28.121094 127.027344 27.164062 128.671875 26.246094 C 130.3125 25.324219 131.976562 24.445312 133.660156 23.601562 C 135.34375 22.761719 137.046875 21.957031 138.765625 21.195312 C 140.488281 20.429688 142.226562 19.707031 143.980469 19.023438 C 145.734375 18.339844 147.503906 17.699219 149.289062 17.097656 C 151.070312 16.5 152.867188 15.941406 154.679688 15.421875 C 156.488281 14.90625 158.308594 14.429688 160.144531 13.996094 C 161.976562 13.566406 163.816406 13.175781 165.667969 12.828125 C 167.515625 12.480469 169.375 12.175781 171.238281 11.914062 C 173.101562 11.652344 174.972656 11.4375 176.847656 11.261719 C 178.722656 11.085938 180.597656 10.957031 182.480469 10.871094 C 184.359375 10.78125 186.242188 10.738281 188.125 10.738281 C 190.007812 10.738281 191.890625 10.785156 193.769531 10.871094 C 195.648438 10.957031 197.527344 11.089844 199.402344 11.265625 C 201.277344 11.4375 203.144531 11.65625 205.011719 11.917969 C 206.875 12.179688 208.730469 12.484375 210.582031 12.832031 C 212.433594 13.179688 214.273438 13.570312 216.105469 14.003906 C 217.9375 14.4375 219.757812 14.910156 221.570312 15.429688 C 223.378906 15.945312 225.175781 16.507812 226.960938 17.105469 C 228.746094 17.707031 230.511719 18.351562 232.269531 19.035156 C 234.023438 19.714844 235.757812 20.441406 237.480469 21.203125 C 239.203125 21.96875 240.902344 22.769531 242.585938 23.613281 C 244.269531 24.457031 245.933594 25.339844 247.574219 26.257812 C 249.21875 27.179688 250.839844 28.136719 252.4375 29.128906 C 254.035156 30.125 255.609375 31.15625 257.160156 32.226562 C 258.710938 33.292969 260.234375 34.398438 261.734375 35.535156 C 263.230469 36.675781 264.703125 37.847656 266.148438 39.054688 C 267.59375 40.261719 269.007812 41.503906 270.394531 42.777344 C 271.730469 43.980469 272.761719 45.402344 273.492188 47.046875 C 274.222656 48.6875 274.585938 50.410156 274.582031 52.207031 L 274.566406 68.800781 C 274.566406 70.515625 274.238281 72.160156 273.585938 73.746094 C 272.9375 75.328125 272.007812 76.726562 270.804688 77.941406 L 267.757812 80.988281 C 267.296875 81.449219 266.804688 81.871094 266.28125 82.253906 C 265.757812 82.636719 265.210938 82.980469 264.636719 83.28125 C 264.0625 83.582031 263.464844 83.839844 262.851562 84.050781 C 262.238281 84.261719 261.613281 84.425781 260.976562 84.542969 C 260.335938 84.660156 259.691406 84.730469 259.042969 84.75 C 258.394531 84.769531 257.75 84.742188 257.105469 84.664062 C 256.460938 84.585938 255.824219 84.460938 255.199219 84.285156 C 254.574219 84.113281 253.964844 83.894531 253.375 83.628906 L 226.480469 71.441406 C 225.386719 70.9375 224.386719 70.296875 223.472656 69.515625 C 222.558594 68.734375 221.769531 67.84375 221.105469 66.84375 C 220.441406 65.839844 219.925781 64.769531 219.5625 63.625 C 219.195312 62.480469 218.992188 61.304688 218.957031 60.105469 L 218.785156 53.839844 C 218.773438 53.367188 218.722656 52.902344 218.628906 52.4375 C 218.535156 51.972656 218.40625 51.523438 218.234375 51.082031 C 218.066406 50.640625 217.859375 50.214844 217.617188 49.8125 C 217.375 49.40625 217.097656 49.023438 216.792969 48.664062 C 216.484375 48.304688 216.148438 47.976562 215.785156 47.675781 C 215.417969 47.375 215.03125 47.105469 214.621094 46.871094 C 214.210938 46.636719 213.785156 46.4375 213.339844 46.277344 C 212.898438 46.117188 212.441406 45.992188 211.976562 45.910156 C 204.078125 44.449219 196.117188 43.707031 188.085938 43.683594 C 180.054688 43.664062 172.085938 44.359375 164.179688 45.773438 C 163.726562 45.867188 163.285156 46 162.851562 46.171875 C 162.421875 46.339844 162.007812 46.546875 161.609375 46.785156 C 161.210938 47.023438 160.835938 47.296875 160.484375 47.597656 C 160.132812 47.898438 159.808594 48.230469 159.511719 48.585938 C 159.214844 48.941406 158.949219 49.320312 158.71875 49.722656 C 158.484375 50.121094 158.285156 50.539062 158.121094 50.976562 C 157.957031 51.410156 157.832031 51.855469 157.742188 52.308594 C 157.65625 52.765625 157.605469 53.222656 157.59375 53.6875 L 157.421875 60.054688 C 157.382812 61.253906 157.183594 62.425781 156.816406 63.574219 C 156.453125 64.71875 155.9375 65.789062 155.273438 66.792969 C 154.609375 67.792969 153.820312 68.683594 152.90625 69.464844 C 151.992188 70.246094 150.992188 70.886719 149.898438 71.390625 L 123.003906 83.578125 C 122.414062 83.851562 121.804688 84.074219 121.179688 84.253906 C 120.550781 84.4375 119.914062 84.566406 119.269531 84.652344 C 118.625 84.734375 117.976562 84.769531 117.324219 84.753906 C 116.671875 84.738281 116.027344 84.675781 115.382812 84.5625 C 114.742188 84.449219 114.113281 84.289062 113.496094 84.082031 C 112.878906 83.875 112.28125 83.621094 111.699219 83.324219 C 111.121094 83.023438 110.566406 82.683594 110.039062 82.300781 C 109.511719 81.917969 109.019531 81.5 108.554688 81.042969 Z M 108.554688 81.042969 " fill-opacity="1" fill-rule="nonzero"/></g></g></g><g clip-path="url(#50da1b6ef4)"><path fill="#293241" d="M 57.910156 190.039062 C 56.992188 190.039062 56.25 189.296875 56.25 188.378906 L 56.25 186.628906 C 56.25 185.710938 56.992188 184.96875 57.910156 184.96875 C 58.828125 184.96875 59.574219 185.710938 59.574219 186.628906 L 59.574219 188.378906 C 59.574219 189.296875 58.828125 190.039062 57.910156 190.039062 Z M 65.75 191.003906 L 65.75 184.007812 C 65.75 183.089844 65.007812 182.347656 64.089844 182.347656 C 63.171875 182.347656 62.429688 183.089844 62.429688 184.007812 L 62.429688 191.003906 C 62.429688 191.921875 63.171875 192.664062 64.089844 192.664062 C 65.007812 192.664062 65.75 191.921875 65.75 191.003906 Z M 71.925781 196.816406 L 71.925781 178.191406 C 71.925781 177.273438 71.183594 176.53125 70.265625 176.53125 C 69.347656 176.53125 68.601562 177.273438 68.601562 178.191406 L 68.601562 196.816406 C 68.601562 197.734375 69.347656 198.476562 70.265625 198.476562 C 71.183594 198.476562 71.925781 197.734375 71.925781 196.816406 Z M 78.105469 191.003906 L 78.105469 184.007812 C 78.105469 183.089844 77.359375 182.347656 76.441406 182.347656 C 75.523438 182.347656 74.78125 183.089844 74.78125 184.007812 L 74.78125 191.003906 C 74.78125 191.921875 75.523438 192.664062 76.441406 192.664062 C 77.359375 192.664062 78.105469 191.921875 78.105469 191.003906 Z M 84.28125 189.371094 L 84.28125 185.640625 C 84.28125 184.722656 83.539062 183.976562 82.621094 183.976562 C 81.703125 183.976562 80.960938 184.722656 80.960938 185.640625 L 80.960938 189.371094 C 80.960938 190.289062 81.703125 191.03125 82.621094 191.03125 C 83.539062 191.03125 84.28125 190.289062 84.28125 189.371094 Z M 90.457031 193.101562 L 90.457031 181.910156 C 90.457031 180.992188 89.714844 180.246094 88.796875 180.246094 C 87.878906 180.246094 87.132812 180.992188 87.132812 181.910156 L 87.132812 193.101562 C 87.132812 194.019531 87.878906 194.761719 88.796875 194.761719 C 89.714844 194.761719 90.457031 194.019531 90.457031 193.101562 Z M 96.636719 199.308594 L 96.636719 175.699219 C 96.636719 174.78125 95.890625 174.039062 94.972656 174.039062 C 94.054688 174.039062 93.3125 174.78125 93.3125 175.699219 L 93.3125 199.308594 C 93.3125 200.226562 94.054688 200.96875 94.972656 200.96875 C 95.890625 200.96875 96.636719 200.226562 96.636719 199.308594 Z M 102.8125 206.914062 L 102.8125 168.09375 C 102.8125 167.175781 102.070312 166.433594 101.152344 166.433594 C 100.234375 166.433594 99.492188 167.175781 99.492188 168.09375 L 99.492188 206.914062 C 99.492188 207.832031 100.234375 208.578125 101.152344 208.578125 C 102.070312 208.578125 102.8125 207.832031 102.8125 206.914062 Z M 108.988281 198.742188 L 108.988281 176.269531 C 108.988281 175.351562 108.246094 174.609375 107.328125 174.609375 C 106.410156 174.609375 105.664062 175.351562 105.664062 176.269531 L 105.664062 198.742188 C 105.664062 199.660156 106.410156 200.402344 107.328125 200.402344 C 108.246094 200.402344 108.988281 199.660156 108.988281 198.742188 Z M 115.167969 193.101562 L 115.167969 181.910156 C 115.167969 180.992188 114.421875 180.246094 113.503906 180.246094 C 112.585938 180.246094 111.84375 180.992188 111.84375 181.910156 L 111.84375 193.101562 C 111.84375 194.019531 112.585938 194.761719 113.503906 194.761719 C 114.421875 194.761719 115.167969 194.019531 115.167969 193.101562 Z M 121.34375 191.003906 L 121.34375 184.007812 C 121.34375 183.089844 120.601562 182.347656 119.683594 182.347656 C 118.765625 182.347656 118.023438 183.089844 118.023438 184.007812 L 118.023438 191.003906 C 118.023438 191.921875 118.765625 192.664062 119.683594 192.664062 C 120.601562 192.664062 121.34375 191.921875 121.34375 191.003906 Z M 127.519531 188.757812 L 127.519531 186.25 C 127.519531 185.332031 126.777344 184.589844 125.859375 184.589844 C 124.941406 184.589844 124.195312 185.332031 124.195312 186.25 L 124.195312 188.757812 C 124.195312 189.675781 124.941406 190.417969 125.859375 190.417969 C 126.777344 190.417969 127.519531 189.675781 127.519531 188.757812 Z M 133.699219 192.445312 L 133.699219 182.566406 C 133.699219 181.648438 132.953125 180.902344 132.035156 180.902344 C 131.117188 180.902344 130.375 181.648438 130.375 182.566406 L 130.375 192.445312 C 130.375 193.363281 131.117188 194.105469 132.035156 194.105469 C 132.953125 194.105469 133.699219 193.363281 133.699219 192.445312 Z M 139.875 190.390625 L 139.875 184.621094 C 139.875 183.703125 139.132812 182.957031 138.214844 182.957031 C 137.296875 182.957031 136.554688 183.703125 136.554688 184.621094 L 136.554688 190.390625 C 136.554688 191.308594 137.296875 192.050781 138.214844 192.050781 C 139.132812 192.050781 139.875 191.308594 139.875 190.390625 Z M 146.050781 197.558594 L 146.050781 177.449219 C 146.050781 176.53125 145.308594 175.789062 144.390625 175.789062 C 143.472656 175.789062 142.726562 176.53125 142.726562 177.449219 L 142.726562 197.558594 C 142.726562 198.476562 143.472656 199.222656 144.390625 199.222656 C 145.308594 199.222656 146.050781 198.476562 146.050781 197.558594 Z M 152.230469 206.304688 L 152.230469 168.707031 C 152.230469 167.789062 151.488281 167.046875 150.566406 167.046875 C 149.648438 167.046875 148.90625 167.789062 148.90625 168.707031 L 148.90625 206.304688 C 148.90625 207.222656 149.648438 207.964844 150.566406 207.964844 C 151.488281 207.964844 152.230469 207.222656 152.230469 206.304688 Z M 158.410156 216.621094 L 158.410156 158.390625 C 158.410156 157.472656 157.664062 156.726562 156.746094 156.726562 C 155.828125 156.726562 155.085938 157.472656 155.085938 158.390625 L 155.085938 216.621094 C 155.085938 217.539062 155.828125 218.28125 156.746094 218.28125 C 157.664062 218.28125 158.410156 217.539062 158.410156 216.621094 Z M 164.582031 206.304688 L 164.582031 168.707031 C 164.582031 167.789062 163.839844 167.046875 162.921875 167.046875 C 162.003906 167.046875 161.257812 167.789062 161.257812 168.707031 L 161.257812 206.304688 C 161.257812 207.222656 162.003906 207.964844 162.921875 207.964844 C 163.839844 207.964844 164.582031 207.222656 164.582031 206.304688 Z M 170.761719 197.558594 L 170.761719 177.449219 C 170.761719 176.53125 170.019531 175.789062 169.101562 175.789062 C 168.183594 175.789062 167.4375 176.53125 167.4375 177.449219 L 167.4375 197.558594 C 167.4375 198.476562 168.183594 199.222656 169.101562 199.222656 C 170.019531 199.222656 170.761719 198.476562 170.761719 197.558594 Z M 176.941406 190.566406 L 176.941406 184.445312 C 176.941406 183.527344 176.195312 182.785156 175.277344 182.785156 C 174.359375 182.785156 173.617188 183.527344 173.617188 184.445312 L 173.617188 190.566406 C 173.617188 191.484375 174.359375 192.226562 175.277344 192.226562 C 176.195312 192.226562 176.941406 191.484375 176.941406 190.566406 Z M 183.117188 192.707031 L 183.117188 182.300781 C 183.117188 181.382812 182.375 180.640625 181.457031 180.640625 C 180.539062 180.640625 179.796875 181.382812 179.796875 182.300781 L 179.796875 192.707031 C 179.796875 193.625 180.539062 194.367188 181.457031 194.367188 C 182.371094 194.367188 183.117188 193.625 183.117188 192.707031 Z M 189.292969 197.558594 L 189.292969 177.449219 C 189.292969 176.53125 188.550781 175.789062 187.632812 175.789062 C 186.714844 175.789062 185.96875 176.53125 185.96875 177.449219 L 185.96875 197.558594 C 185.96875 198.476562 186.714844 199.222656 187.632812 199.222656 C 188.550781 199.222656 189.292969 198.476562 189.292969 197.558594 Z M 195.472656 204.6875 L 195.472656 170.324219 C 195.472656 169.40625 194.726562 168.664062 193.808594 168.664062 C 192.890625 168.664062 192.148438 169.40625 192.148438 170.324219 L 192.148438 204.6875 C 192.148438 205.605469 192.890625 206.347656 193.808594 206.347656 C 194.726562 206.347656 195.472656 205.605469 195.472656 204.6875 Z M 201.648438 197.558594 L 201.648438 177.449219 C 201.648438 176.53125 200.90625 175.789062 199.988281 175.789062 C 199.070312 175.789062 198.328125 176.53125 198.328125 177.449219 L 198.328125 197.558594 C 198.328125 198.476562 199.070312 199.222656 199.988281 199.222656 C 200.902344 199.222656 201.648438 198.476562 201.648438 197.558594 Z M 207.824219 192.707031 L 207.824219 182.300781 C 207.824219 181.382812 207.082031 180.640625 206.164062 180.640625 C 205.246094 180.640625 204.5 181.382812 204.5 182.300781 L 204.5 192.707031 C 204.5 193.625 205.246094 194.367188 206.164062 194.367188 C 207.082031 194.367188 207.824219 193.625 207.824219 192.707031 Z M 214.003906 189.558594 L 214.003906 185.449219 C 214.003906 184.53125 213.257812 183.789062 212.339844 183.789062 C 211.421875 183.789062 210.679688 184.53125 210.679688 185.449219 L 210.679688 189.558594 C 210.679688 190.476562 211.421875 191.222656 212.339844 191.222656 C 213.257812 191.222656 214.003906 190.476562 214.003906 189.558594 Z M 220.179688 191.703125 L 220.179688 183.308594 C 220.179688 182.390625 219.4375 181.648438 218.519531 181.648438 C 217.601562 181.648438 216.859375 182.390625 216.859375 183.308594 L 216.859375 191.703125 C 216.859375 192.621094 217.601562 193.363281 218.519531 193.363281 C 219.433594 193.363281 220.179688 192.621094 220.179688 191.703125 Z M 226.355469 190.171875 L 226.355469 184.839844 C 226.355469 183.921875 225.613281 183.175781 224.695312 183.175781 C 223.777344 183.175781 223.03125 183.921875 223.03125 184.839844 L 223.03125 190.171875 C 223.03125 191.089844 223.777344 191.832031 224.695312 191.832031 C 225.613281 191.832031 226.355469 191.089844 226.355469 190.171875 Z M 232.535156 194.9375 L 232.535156 180.074219 C 232.535156 179.15625 231.789062 178.410156 230.871094 178.410156 C 229.953125 178.410156 229.210938 179.15625 229.210938 180.074219 L 229.210938 194.9375 C 229.210938 195.855469 229.953125 196.597656 230.871094 196.597656 C 231.789062 196.597656 232.535156 195.855469 232.535156 194.9375 Z M 238.710938 201.757812 L 238.710938 173.253906 C 238.710938 172.335938 237.96875 171.589844 237.050781 171.589844 C 236.132812 171.589844 235.390625 172.335938 235.390625 173.253906 L 235.390625 201.757812 C 235.390625 202.675781 236.132812 203.417969 237.050781 203.417969 C 237.964844 203.417969 238.710938 202.675781 238.710938 201.757812 Z M 244.886719 211.375 L 244.886719 163.636719 C 244.886719 162.71875 244.144531 161.972656 243.226562 161.972656 C 242.308594 161.972656 241.5625 162.71875 241.5625 163.636719 L 241.5625 211.375 C 241.5625 212.292969 242.308594 213.035156 243.226562 213.035156 C 244.144531 213.035156 244.886719 212.292969 244.886719 211.375 Z M 251.066406 201.011719 L 251.066406 173.996094 C 251.066406 173.078125 250.320312 172.335938 249.402344 172.335938 C 248.484375 172.335938 247.742188 173.078125 247.742188 173.996094 L 247.742188 201.011719 C 247.742188 201.933594 248.484375 202.675781 249.402344 202.675781 C 250.320312 202.675781 251.066406 201.933594 251.066406 201.011719 Z M 312.609375 201.011719 L 312.609375 173.996094 C 312.609375 173.078125 311.867188 172.335938 310.949219 172.335938 C 310.03125 172.335938 309.289062 173.078125 309.289062 173.996094 L 309.289062 201.011719 C 309.289062 201.933594 310.03125 202.675781 310.949219 202.675781 C 311.867188 202.675781 312.609375 201.933594 312.609375 201.011719 Z M 257.246094 192.53125 L 257.246094 182.476562 C 257.246094 181.558594 256.5 180.816406 255.582031 180.816406 C 254.664062 180.816406 253.921875 181.558594 253.921875 182.476562 L 253.921875 192.53125 C 253.921875 193.449219 254.664062 194.195312 255.582031 194.195312 C 256.5 194.195312 257.246094 193.449219 257.246094 192.53125 Z M 300.371094 192.53125 L 300.371094 182.476562 C 300.371094 181.558594 299.625 180.816406 298.707031 180.816406 C 297.789062 180.816406 297.046875 181.558594 297.046875 182.476562 L 297.046875 192.53125 C 297.046875 193.449219 297.789062 194.195312 298.707031 194.195312 C 299.625 194.195312 300.371094 193.449219 300.371094 192.53125 Z M 263.417969 189.339844 L 263.417969 185.667969 C 263.417969 184.75 262.675781 184.007812 261.757812 184.007812 C 260.839844 184.007812 260.09375 184.75 260.09375 185.667969 L 260.09375 189.339844 C 260.09375 190.257812 260.839844 191.003906 261.757812 191.003906 C 262.675781 191.003906 263.417969 190.257812 263.417969 189.339844 Z M 269.597656 190.914062 L 269.597656 184.09375 C 269.597656 183.175781 268.855469 182.433594 267.933594 182.433594 C 267.015625 182.433594 266.273438 183.175781 266.273438 184.09375 L 266.273438 190.914062 C 266.273438 191.832031 267.015625 192.574219 267.933594 192.574219 C 268.855469 192.574219 269.597656 191.832031 269.597656 190.914062 Z M 294.25 190.914062 L 294.25 184.09375 C 294.25 183.175781 293.503906 182.433594 292.585938 182.433594 C 291.667969 182.433594 290.925781 183.175781 290.925781 184.09375 L 290.925781 190.914062 C 290.925781 191.832031 291.667969 192.574219 292.585938 192.574219 C 293.503906 192.574219 294.25 191.832031 294.25 190.914062 Z M 275.777344 196.597656 L 275.777344 178.410156 C 275.777344 177.492188 275.03125 176.75 274.113281 176.75 C 273.195312 176.75 272.453125 177.492188 272.453125 178.410156 L 272.453125 196.597656 C 272.453125 197.515625 273.195312 198.257812 274.113281 198.257812 C 275.03125 198.257812 275.777344 197.515625 275.777344 196.597656 Z M 318.730469 196.597656 L 318.730469 178.410156 C 318.730469 177.492188 317.988281 176.75 317.070312 176.75 C 316.152344 176.75 315.40625 177.492188 315.40625 178.410156 L 315.40625 196.597656 C 315.40625 197.515625 316.152344 198.257812 317.070312 198.257812 C 317.988281 198.257812 318.730469 197.515625 318.730469 196.597656 Z M 306.488281 196.597656 L 306.488281 178.410156 C 306.488281 177.492188 305.746094 176.75 304.828125 176.75 C 303.910156 176.75 303.167969 177.492188 303.167969 178.410156 L 303.167969 196.597656 C 303.167969 197.515625 303.910156 198.257812 304.828125 198.257812 C 305.746094 198.257812 306.488281 197.515625 306.488281 196.597656 Z M 281.949219 190.171875 L 281.949219 184.839844 C 281.949219 183.921875 281.207031 183.175781 280.289062 183.175781 C 279.371094 183.175781 278.625 183.921875 278.625 184.839844 L 278.625 190.171875 C 278.625 191.089844 279.371094 191.832031 280.289062 191.832031 C 281.207031 191.832031 281.949219 191.089844 281.949219 190.171875 Z M 288.128906 192.882812 L 288.128906 182.128906 C 288.128906 181.210938 287.386719 180.464844 286.46875 180.464844 C 285.550781 180.464844 284.804688 181.210938 284.804688 182.128906 L 284.804688 192.882812 C 284.804688 193.800781 285.550781 194.542969 286.46875 194.542969 C 287.386719 194.542969 288.128906 193.800781 288.128906 192.882812 Z M 288.128906 192.882812 " fill-opacity="1" fill-rule="nonzero"/></g></svg>