<svg xmlns="http://www.w3.org/2000/svg" xmlns:xlink="http://www.w3.org/1999/xlink" width="500" zoomAndPan="magnify" viewBox="0 0 375 374.999991" height="500" preserveAspectRatio="xMidYMid meet" version="1.0"><defs><clipPath id="39f76dfbda"><path d="M 4.015625 25.34375 L 370.761719 25.34375 L 370.761719 349.34375 L 4.015625 349.34375 Z M 4.015625 25.34375 " clip-rule="nonzero"/></clipPath><clipPath id="30207eeddb"><path d="M 75.039062 160.253906 L 166 160.253906 L 166 250.882812 L 75.039062 250.882812 Z M 75.039062 160.253906 " clip-rule="nonzero"/></clipPath><clipPath id="6c2c89f86c"><path d="M 209.546875 155.417969 L 299.953125 155.417969 L 299.953125 246.703125 L 209.546875 246.703125 Z M 209.546875 155.417969 " clip-rule="nonzero"/></clipPath></defs><g clip-path="url(#39f76dfbda)"><path fill="#293241" d="M 370.882812 260.347656 L 370.882812 53.511719 C 370.882812 52.589844 370.835938 51.667969 370.746094 50.75 C 370.65625 49.832031 370.523438 48.921875 370.339844 48.015625 C 370.160156 47.113281 369.9375 46.21875 369.671875 45.335938 C 369.402344 44.453125 369.09375 43.585938 368.738281 42.730469 C 368.386719 41.878906 367.992188 41.046875 367.558594 40.234375 C 367.121094 39.417969 366.648438 38.628906 366.136719 37.863281 C 365.625 37.09375 365.074219 36.355469 364.488281 35.640625 C 363.902344 34.929688 363.285156 34.246094 362.632812 33.59375 C 361.980469 32.941406 361.296875 32.324219 360.585938 31.738281 C 359.871094 31.152344 359.132812 30.605469 358.363281 30.089844 C 357.597656 29.578125 356.808594 29.105469 355.992188 28.671875 C 355.179688 28.234375 354.347656 27.839844 353.496094 27.488281 C 352.640625 27.136719 351.773438 26.824219 350.890625 26.558594 C 350.007812 26.289062 349.117188 26.066406 348.210938 25.886719 C 347.304688 25.707031 346.394531 25.570312 345.476562 25.480469 C 344.558594 25.390625 343.636719 25.34375 342.714844 25.34375 L 32.273438 25.34375 C 31.351562 25.34375 30.429688 25.390625 29.511719 25.480469 C 28.59375 25.570312 27.683594 25.707031 26.777344 25.886719 C 25.871094 26.066406 24.980469 26.289062 24.097656 26.558594 C 23.214844 26.824219 22.347656 27.136719 21.492188 27.488281 C 20.640625 27.839844 19.808594 28.234375 18.996094 28.667969 C 18.179688 29.105469 17.390625 29.578125 16.625 30.089844 C 15.855469 30.601562 15.117188 31.152344 14.402344 31.738281 C 13.691406 32.324219 13.007812 32.941406 12.355469 33.59375 C 11.703125 34.246094 11.085938 34.929688 10.5 35.640625 C 9.914062 36.355469 9.363281 37.09375 8.851562 37.863281 C 8.339844 38.628906 7.867188 39.417969 7.429688 40.234375 C 6.996094 41.046875 6.601562 41.878906 6.25 42.730469 C 5.898438 43.585938 5.585938 44.453125 5.316406 45.335938 C 5.050781 46.21875 4.828125 47.109375 4.648438 48.015625 C 4.464844 48.921875 4.332031 49.832031 4.242188 50.75 C 4.152344 51.667969 4.105469 52.589844 4.105469 53.511719 L 4.105469 260.347656 C 4.105469 261.269531 4.152344 262.191406 4.242188 263.109375 C 4.332031 264.027344 4.464844 264.9375 4.648438 265.84375 C 4.828125 266.746094 5.050781 267.640625 5.316406 268.523438 C 5.585938 269.40625 5.894531 270.273438 6.25 271.125 C 6.601562 271.980469 6.996094 272.8125 7.429688 273.625 C 7.867188 274.4375 8.339844 275.230469 8.851562 275.996094 C 9.363281 276.761719 9.914062 277.503906 10.5 278.214844 C 11.085938 278.929688 11.703125 279.613281 12.355469 280.265625 C 13.007812 280.917969 13.691406 281.535156 14.402344 282.121094 C 15.117188 282.707031 15.855469 283.253906 16.625 283.769531 C 17.390625 284.28125 18.179688 284.753906 18.996094 285.1875 C 19.808594 285.625 20.640625 286.019531 21.492188 286.371094 C 22.347656 286.722656 23.214844 287.035156 24.097656 287.300781 C 24.980469 287.570312 25.871094 287.792969 26.777344 287.972656 C 27.683594 288.152344 28.59375 288.289062 29.511719 288.378906 C 30.429688 288.46875 31.351562 288.515625 32.273438 288.515625 L 149.0625 288.515625 L 149.0625 304.816406 C 149.0625 305.558594 149.027344 306.300781 148.953125 307.042969 C 148.882812 307.785156 148.773438 308.519531 148.628906 309.25 C 148.480469 309.980469 148.300781 310.699219 148.085938 311.414062 C 147.867188 312.125 147.617188 312.824219 147.332031 313.511719 C 147.046875 314.199219 146.730469 314.875 146.378906 315.53125 C 146.027344 316.1875 145.644531 316.824219 145.234375 317.441406 C 144.820312 318.0625 144.375 318.660156 143.902344 319.234375 C 143.429688 319.808594 142.933594 320.359375 142.40625 320.886719 C 141.878906 321.414062 141.328125 321.914062 140.753906 322.386719 C 140.175781 322.859375 139.582031 323.300781 138.960938 323.714844 C 138.34375 324.128906 137.703125 324.511719 137.046875 324.859375 C 136.390625 325.210938 135.71875 325.53125 135.03125 325.816406 C 134.34375 326.097656 133.644531 326.351562 132.929688 326.566406 C 132.21875 326.78125 131.496094 326.960938 130.765625 327.109375 C 130.039062 327.253906 129.300781 327.363281 128.5625 327.433594 C 127.820312 327.507812 127.078125 327.542969 126.332031 327.542969 L 100.898438 327.542969 C 100.171875 327.542969 99.449219 327.582031 98.730469 327.652344 C 98.011719 327.722656 97.296875 327.828125 96.585938 327.96875 C 95.875 328.109375 95.175781 328.285156 94.480469 328.496094 C 93.789062 328.707031 93.109375 328.949219 92.4375 329.226562 C 91.769531 329.503906 91.117188 329.8125 90.480469 330.15625 C 89.839844 330.496094 89.21875 330.867188 88.617188 331.269531 C 88.015625 331.671875 87.4375 332.101562 86.875 332.5625 C 86.316406 333.019531 85.78125 333.507812 85.269531 334.019531 C 84.757812 334.53125 84.273438 335.066406 83.8125 335.625 C 83.355469 336.183594 82.921875 336.765625 82.519531 337.367188 C 82.117188 337.96875 81.746094 338.589844 81.40625 339.226562 C 81.066406 339.867188 80.753906 340.519531 80.476562 341.1875 C 80.203125 341.855469 79.957031 342.539062 79.746094 343.230469 C 79.539062 343.921875 79.363281 344.625 79.222656 345.332031 C 79.078125 346.042969 78.972656 346.757812 78.902344 347.480469 C 78.832031 348.199219 78.796875 348.921875 78.796875 349.644531 L 296.195312 349.644531 C 296.195312 348.921875 296.160156 348.199219 296.089844 347.480469 C 296.019531 346.757812 295.910156 346.042969 295.769531 345.332031 C 295.628906 344.625 295.453125 343.921875 295.242188 343.230469 C 295.035156 342.535156 294.789062 341.855469 294.511719 341.1875 C 294.234375 340.519531 293.925781 339.867188 293.585938 339.226562 C 293.246094 338.589844 292.871094 337.96875 292.46875 337.367188 C 292.070312 336.765625 291.636719 336.183594 291.179688 335.625 C 290.71875 335.066406 290.234375 334.53125 289.722656 334.019531 C 289.210938 333.503906 288.675781 333.019531 288.113281 332.5625 C 287.554688 332.101562 286.976562 331.671875 286.375 331.269531 C 285.769531 330.867188 285.152344 330.496094 284.511719 330.152344 C 283.875 329.8125 283.222656 329.503906 282.550781 329.226562 C 281.882812 328.949219 281.203125 328.707031 280.511719 328.496094 C 279.816406 328.285156 279.117188 328.109375 278.40625 327.96875 C 277.695312 327.828125 276.980469 327.722656 276.261719 327.652344 C 275.539062 327.578125 274.820312 327.542969 274.09375 327.542969 L 248.65625 327.542969 C 247.910156 327.542969 247.167969 327.507812 246.425781 327.433594 C 245.6875 327.363281 244.949219 327.253906 244.222656 327.109375 C 243.492188 326.960938 242.769531 326.78125 242.058594 326.566406 C 241.34375 326.351562 240.644531 326.097656 239.957031 325.816406 C 239.269531 325.53125 238.597656 325.210938 237.941406 324.859375 C 237.285156 324.511719 236.644531 324.128906 236.027344 323.714844 C 235.40625 323.300781 234.8125 322.859375 234.234375 322.386719 C 233.660156 321.914062 233.109375 321.414062 232.582031 320.886719 C 232.054688 320.359375 231.558594 319.808594 231.085938 319.234375 C 230.613281 318.660156 230.167969 318.0625 229.753906 317.441406 C 229.34375 316.824219 228.960938 316.1875 228.609375 315.53125 C 228.257812 314.875 227.941406 314.199219 227.65625 313.511719 C 227.371094 312.824219 227.121094 312.125 226.902344 311.414062 C 226.6875 310.699219 226.507812 309.980469 226.359375 309.25 C 226.214844 308.519531 226.105469 307.785156 226.035156 307.042969 C 225.960938 306.300781 225.925781 305.558594 225.925781 304.816406 L 225.925781 288.515625 L 342.714844 288.515625 C 343.636719 288.515625 344.558594 288.46875 345.476562 288.378906 C 346.394531 288.289062 347.304688 288.152344 348.210938 287.972656 C 349.117188 287.792969 350.007812 287.570312 350.890625 287.300781 C 351.773438 287.035156 352.640625 286.722656 353.496094 286.371094 C 354.347656 286.019531 355.179688 285.625 355.992188 285.1875 C 356.808594 284.753906 357.597656 284.28125 358.363281 283.769531 C 359.132812 283.253906 359.871094 282.707031 360.585938 282.121094 C 361.296875 281.535156 361.980469 280.917969 362.632812 280.265625 C 363.285156 279.613281 363.902344 278.929688 364.488281 278.214844 C 365.074219 277.503906 365.625 276.761719 366.136719 275.996094 C 366.648438 275.230469 367.121094 274.4375 367.558594 273.625 C 367.992188 272.8125 368.386719 271.980469 368.738281 271.125 C 369.089844 270.273438 369.402344 269.40625 369.671875 268.523438 C 369.9375 267.640625 370.160156 266.746094 370.339844 265.84375 C 370.523438 264.9375 370.65625 264.027344 370.746094 263.109375 C 370.835938 262.191406 370.882812 261.269531 370.882812 260.347656 Z M 21.296875 249.953125 L 21.296875 54.738281 C 21.296875 53.960938 21.375 53.191406 21.527344 52.429688 C 21.675781 51.664062 21.902344 50.925781 22.199219 50.207031 C 22.496094 49.488281 22.863281 48.804688 23.292969 48.160156 C 23.726562 47.515625 24.214844 46.914062 24.765625 46.367188 C 25.316406 45.816406 25.914062 45.324219 26.558594 44.894531 C 27.207031 44.460938 27.890625 44.097656 28.605469 43.800781 C 29.324219 43.503906 30.066406 43.277344 30.828125 43.125 C 31.589844 42.976562 32.359375 42.898438 33.136719 42.898438 L 341.851562 42.898438 C 342.628906 42.898438 343.398438 42.976562 344.160156 43.125 C 344.921875 43.277344 345.664062 43.503906 346.382812 43.800781 C 347.097656 44.097656 347.78125 44.460938 348.429688 44.894531 C 349.074219 45.324219 349.671875 45.816406 350.222656 46.367188 C 350.773438 46.914062 351.261719 47.515625 351.695312 48.160156 C 352.125 48.804688 352.492188 49.488281 352.789062 50.207031 C 353.085938 50.925781 353.3125 51.664062 353.460938 52.429688 C 353.613281 53.191406 353.691406 53.960938 353.691406 54.738281 L 353.691406 249.953125 C 353.691406 250.730469 353.613281 251.5 353.460938 252.261719 C 353.3125 253.023438 353.085938 253.765625 352.789062 254.484375 C 352.492188 255.199219 352.125 255.882812 351.695312 256.53125 C 351.261719 257.175781 350.773438 257.773438 350.222656 258.324219 C 349.671875 258.871094 349.074219 259.363281 348.429688 259.796875 C 347.78125 260.226562 347.097656 260.59375 346.382812 260.890625 C 345.664062 261.1875 344.921875 261.410156 344.160156 261.5625 C 343.398438 261.714844 342.628906 261.789062 341.851562 261.789062 L 33.136719 261.789062 C 32.359375 261.789062 31.589844 261.714844 30.828125 261.5625 C 30.066406 261.410156 29.324219 261.1875 28.605469 260.890625 C 27.890625 260.59375 27.207031 260.226562 26.558594 259.796875 C 25.914062 259.363281 25.316406 258.871094 24.765625 258.324219 C 24.214844 257.773438 23.726562 257.175781 23.292969 256.53125 C 22.863281 255.882812 22.496094 255.199219 22.199219 254.484375 C 21.902344 253.765625 21.675781 253.023438 21.527344 252.261719 C 21.375 251.5 21.296875 250.730469 21.296875 249.953125 Z M 21.296875 249.953125 " fill-opacity="1" fill-rule="nonzero"/></g><path fill="#ee6c4d" d="M 209.050781 119.726562 C 224.046875 120.207031 234.5 117.8125 235.59375 108.546875 C 235.097656 99.226562 224.816406 96.167969 209.820312 95.6875 C 202.726562 95.460938 195.753906 97.132812 190.246094 99.402344 C 194.390625 95.121094 198.519531 89.261719 200.925781 82.582031 C 206.019531 68.46875 206.96875 57.785156 198.496094 53.882812 C 189.476562 51.476562 183.390625 60.304688 178.300781 74.421875 C 175.890625 81.097656 175.328125 88.246094 175.785156 94.1875 C 172.996094 88.921875 168.695312 83.183594 163.089844 78.828125 C 151.238281 69.625 141.375 65.417969 135.042969 72.273438 C 129.96875 80.105469 136.484375 88.621094 148.335938 97.828125 C 153.941406 102.179688 160.566406 104.925781 166.355469 106.328125 C 160.488281 107.351562 153.703125 109.667969 147.828125 113.65625 C 135.414062 122.082031 128.363281 130.164062 132.929688 138.304688 C 138.808594 145.550781 148.921875 141.984375 161.335938 133.558594 C 167.210938 129.570312 171.867188 124.121094 174.988281 119.046875 C 174.152344 124.945312 174.257812 132.113281 176.234375 138.929688 C 180.410156 153.34375 185.917969 162.542969 195.070312 160.71875 C 203.78125 157.367188 203.515625 146.648438 199.335938 132.234375 C 197.359375 125.417969 193.613281 119.304688 189.753906 114.765625 C 195.105469 117.382812 201.957031 119.5 209.050781 119.726562 " fill-opacity="1" fill-rule="nonzero"/><path fill="#3d5a80" d="M 188.800781 107.769531 C 187.085938 112.53125 181.832031 115 177.066406 113.28125 C 172.304688 111.5625 169.835938 106.308594 171.554688 101.546875 C 173.273438 96.785156 178.527344 94.316406 183.289062 96.035156 C 188.050781 97.753906 190.519531 103.007812 188.800781 107.769531 " fill-opacity="1" fill-rule="nonzero"/><g clip-path="url(#30207eeddb)"><path fill="#ee6c4d" d="M 165.597656 212.167969 C 166.886719 201.042969 158.851562 196.292969 146.398438 194.089844 C 144.183594 193.695312 141.9375 193.625 139.726562 193.800781 C 141.226562 192.167969 142.554688 190.355469 143.613281 188.371094 C 149.558594 177.207031 150.769531 167.953125 141.222656 162.109375 C 131.042969 157.445312 124.039062 163.621094 118.097656 174.78125 C 117.039062 176.765625 116.277344 178.882812 115.761719 181.035156 C 114.671875 179.105469 113.359375 177.28125 111.796875 175.664062 C 103.019531 166.5625 94.589844 162.546875 86.082031 169.820312 C 78.503906 178.0625 82.210938 186.628906 90.988281 195.730469 C 92.550781 197.351562 94.328125 198.730469 96.214844 199.886719 C 94.042969 200.324219 91.902344 201.011719 89.882812 201.996094 C 78.511719 207.53125 72.089844 214.304688 76.378906 224.648438 C 81.875 234.402344 91.167969 233.523438 102.539062 227.988281 C 104.558594 227.003906 106.417969 225.738281 108.105469 224.300781 C 107.851562 226.5 107.839844 228.75 108.152344 230.976562 C 109.902344 243.5 114.363281 251.703125 125.523438 250.816406 C 136.496094 248.605469 138.535156 239.496094 136.78125 226.96875 C 136.472656 224.746094 135.84375 222.585938 134.992188 220.535156 C 137.011719 221.457031 139.144531 222.164062 141.359375 222.554688 C 153.8125 224.761719 162.988281 223.054688 165.597656 212.167969 " fill-opacity="1" fill-rule="nonzero"/></g><path fill="#3d5a80" d="M 130.371094 210.945312 C 124.910156 216.40625 116.054688 216.40625 110.589844 210.945312 C 105.128906 205.484375 105.128906 196.628906 110.589844 191.167969 C 116.054688 185.707031 124.910156 185.707031 130.371094 191.167969 C 135.832031 196.628906 135.832031 205.484375 130.371094 210.945312 " fill-opacity="1" fill-rule="nonzero"/><g clip-path="url(#6c2c89f86c)"><path fill="#ee6c4d" d="M 291.765625 167.757812 C 283.695312 159.996094 275.046875 163.507812 265.75 172.082031 C 264.097656 173.605469 262.679688 175.351562 261.480469 177.214844 C 261.089844 175.03125 260.453125 172.875 259.515625 170.832031 C 254.234375 159.339844 247.605469 152.769531 237.171875 156.824219 C 227.296875 162.097656 227.964844 171.410156 233.242188 182.902344 C 234.183594 184.945312 235.402344 186.832031 236.804688 188.550781 C 234.609375 188.246094 232.363281 188.183594 230.128906 188.445312 C 217.566406 189.917969 209.269531 194.1875 209.902344 205.367188 C 211.867188 216.386719 220.929688 218.628906 233.488281 217.160156 C 235.722656 216.898438 237.894531 216.320312 239.960938 215.519531 C 238.992188 217.511719 238.242188 219.632812 237.800781 221.835938 C 235.316406 234.238281 236.816406 243.449219 247.640625 246.300781 C 258.730469 247.839844 263.664062 239.914062 266.148438 227.511719 C 266.589844 225.308594 266.710938 223.0625 266.585938 220.851562 C 268.183594 222.386719 269.964844 223.757812 271.925781 224.859375 C 282.953125 231.050781 292.179688 232.472656 298.234375 223.058594 C 303.125 212.988281 297.113281 205.847656 286.085938 199.652344 C 284.125 198.550781 282.027344 197.742188 279.882812 197.175781 C 281.839844 196.132812 283.695312 194.859375 285.347656 193.335938 C 294.644531 184.765625 298.847656 176.429688 291.765625 167.757812 " fill-opacity="1" fill-rule="nonzero"/></g><path fill="#3d5a80" d="M 269.449219 195.046875 C 270.488281 202.699219 265.121094 209.746094 257.46875 210.78125 C 249.8125 211.816406 242.769531 206.453125 241.734375 198.796875 C 240.695312 191.144531 246.0625 184.097656 253.714844 183.0625 C 261.371094 182.027344 268.414062 187.390625 269.449219 195.046875 " fill-opacity="1" fill-rule="nonzero"/></svg>