<svg xmlns="http://www.w3.org/2000/svg" xmlns:xlink="http://www.w3.org/1999/xlink" width="500" zoomAndPan="magnify" viewBox="0 0 375 374.999991" height="500" preserveAspectRatio="xMidYMid meet" version="1.0"><defs><clipPath id="dd837d4177"><path d="M 78.925781 5.992188 L 296.398438 5.992188 L 296.398438 368.992188 L 78.925781 368.992188 Z M 78.925781 5.992188 " clip-rule="nonzero"/></clipPath><clipPath id="97522aafd5"><path d="M 78.925781 5.992188 L 225 5.992188 L 225 368.992188 L 78.925781 368.992188 Z M 78.925781 5.992188 " clip-rule="nonzero"/></clipPath></defs><g clip-path="url(#dd837d4177)"><path fill="#3d5a80" d="M 259.878906 368.972656 L 115.152344 368.972656 C 95.136719 368.972656 78.914062 352.75 78.914062 332.734375 L 78.914062 42.1875 C 78.914062 22.234375 95.144531 5.992188 115.113281 5.992188 L 259.878906 5.992188 C 279.886719 5.992188 296.113281 22.21875 296.113281 42.226562 L 296.113281 332.742188 C 296.113281 352.757812 279.894531 368.972656 259.878906 368.972656 Z M 115.152344 16.332031 C 100.851562 16.332031 89.257812 27.921875 89.257812 42.226562 L 89.257812 332.742188 C 89.257812 347.035156 100.851562 358.628906 115.144531 358.628906 L 259.886719 358.628906 C 274.183594 358.628906 285.773438 347.035156 285.773438 332.742188 L 285.773438 42.21875 C 285.773438 27.921875 274.183594 16.332031 259.886719 16.332031 Z M 95.464844 319.394531 L 95.464844 333.183594 C 95.464844 344.050781 104.277344 352.863281 115.144531 352.863281 L 259.886719 352.863281 C 270.757812 352.863281 279.574219 344.050781 279.574219 333.175781 L 279.574219 319.394531 C 279.574219 319.378906 279.558594 319.363281 279.546875 319.363281 L 95.496094 319.363281 C 95.480469 319.355469 95.464844 319.371094 95.464844 319.394531 Z M 197.859375 344.042969 C 197.859375 345.375 196.78125 346.453125 195.449219 346.453125 L 179.984375 346.453125 C 178.433594 346.453125 177.175781 345.199219 177.175781 343.65625 L 177.175781 328.5625 C 177.175781 327.023438 178.425781 325.769531 179.984375 325.769531 L 195.449219 325.769531 C 196.78125 325.769531 197.859375 326.847656 197.859375 328.175781 Z M 259.878906 23.539062 L 115.152344 23.539062 C 104.277344 23.539062 95.464844 32.359375 95.464844 43.226562 L 95.464844 52.867188 C 95.464844 52.882812 95.480469 52.898438 95.496094 52.898438 L 279.539062 52.898438 C 279.550781 52.898438 279.566406 52.882812 279.566406 52.867188 L 279.566406 43.226562 C 279.566406 32.359375 270.757812 23.539062 259.878906 23.539062 Z M 212.972656 41.566406 L 162.171875 41.566406 C 160.699219 41.566406 159.292969 40.683594 158.859375 39.269531 C 158.152344 36.96875 159.855469 34.871094 162.050781 34.871094 L 212.761719 34.871094 C 214.59375 34.871094 216.242188 36.238281 216.316406 38.0625 C 216.40625 39.984375 214.871094 41.566406 212.972656 41.566406 Z M 212.972656 41.566406 " fill-opacity="1" fill-rule="nonzero"/></g><path fill="#ee6c4d" d="M 279.539062 313.949219 L 95.496094 313.949219 C 95.480469 313.949219 95.464844 313.933594 95.464844 313.917969 L 95.464844 58.90625 C 95.464844 58.890625 95.480469 58.875 95.496094 58.875 L 279.539062 58.875 C 279.550781 58.875 279.566406 58.890625 279.566406 58.90625 L 279.566406 313.917969 C 279.566406 313.933594 279.550781 313.949219 279.539062 313.949219 Z M 279.539062 313.949219 " fill-opacity="1" fill-rule="nonzero"/><path fill="#dd8975" d="M 274.882812 63.730469 L 135.792969 63.730469 C 135.804688 63.730469 135.820312 63.738281 135.820312 63.753906 L 205.273438 309.078125 C 205.277344 309.101562 205.265625 309.125 205.242188 309.125 L 274.882812 309.125 C 274.894531 309.125 274.910156 309.109375 274.910156 309.09375 L 274.910156 63.769531 C 274.910156 63.746094 274.894531 63.730469 274.882812 63.730469 Z M 274.882812 63.730469 " fill-opacity="1" fill-rule="nonzero"/><path fill="#dd8975" d="M 100.113281 63.769531 C 100.113281 63.753906 100.128906 63.738281 100.144531 63.738281 C 100.128906 63.730469 100.113281 63.746094 100.113281 63.769531 Z M 100.113281 63.769531 " fill-opacity="1" fill-rule="nonzero"/><path fill="#dd8975" d="M 100.113281 309.09375 C 100.113281 309.109375 100.128906 309.125 100.144531 309.125 C 100.128906 309.125 100.113281 309.109375 100.113281 309.09375 Z M 100.113281 309.09375 " fill-opacity="1" fill-rule="nonzero"/><g clip-path="url(#97522aafd5)"><path fill="#323a44" d="M 220.78125 358.628906 C 220.796875 358.628906 220.8125 358.636719 220.8125 358.652344 L 224.042969 368.929688 C 224.050781 368.953125 224.035156 368.972656 224.011719 368.972656 L 115.144531 368.972656 C 95.128906 368.972656 78.914062 352.75 78.914062 332.742188 L 78.914062 42.1875 C 78.914062 22.234375 95.144531 5.992188 115.113281 5.992188 L 117.015625 5.992188 C 117.027344 5.992188 117.042969 6 117.042969 6.015625 L 120.265625 16.285156 C 120.273438 16.308594 120.257812 16.332031 120.234375 16.332031 L 115.144531 16.332031 C 100.851562 16.332031 89.257812 27.921875 89.257812 42.21875 L 89.257812 332.734375 C 89.257812 347.035156 100.851562 358.628906 115.152344 358.628906 Z M 115.152344 23.539062 C 104.277344 23.539062 95.464844 32.359375 95.464844 43.226562 L 95.464844 52.867188 C 95.464844 52.882812 95.480469 52.898438 95.496094 52.898438 L 131.703125 52.898438 C 131.726562 52.898438 131.742188 52.875 131.734375 52.851562 L 122.550781 23.5625 C 122.542969 23.546875 122.535156 23.539062 122.519531 23.539062 Z M 95.496094 319.355469 L 208.46875 319.355469 C 208.484375 319.355469 208.5 319.363281 208.5 319.378906 L 218.980469 352.808594 C 218.988281 352.832031 218.976562 352.855469 218.953125 352.855469 L 115.144531 352.855469 C 104.277344 352.855469 95.464844 344.042969 95.464844 333.175781 L 95.464844 319.386719 C 95.464844 319.371094 95.480469 319.355469 95.496094 319.355469 Z M 196.773438 329.679688 C 196.773438 328.121094 195.496094 326.847656 193.9375 326.847656 L 181.0625 326.847656 C 179.515625 326.847656 178.253906 328.101562 178.253906 329.640625 L 178.253906 342.5625 C 178.253906 344.105469 179.507812 345.359375 181.0625 345.359375 L 193.9375 345.359375 C 195.496094 345.359375 196.773438 344.082031 196.773438 342.523438 Z M 196.773438 329.679688 " fill-opacity="1" fill-rule="nonzero"/></g></svg>