<svg xmlns="http://www.w3.org/2000/svg" xmlns:xlink="http://www.w3.org/1999/xlink" width="500" zoomAndPan="magnify" viewBox="0 0 375 374.999991" height="500" preserveAspectRatio="xMidYMid meet" version="1.0"><path fill="#ee6c4d" d="M 335.011719 187.503906 C 335.011719 106.042969 268.945312 39.988281 187.492188 39.988281 C 106.035156 39.988281 39.980469 106.042969 39.980469 187.503906 C 39.980469 259.445312 91.519531 319.371094 159.675781 332.390625 L 159.675781 322.203125 C 97.070312 309.332031 49.976562 253.910156 49.976562 187.503906 C 49.976562 111.5625 111.558594 49.976562 187.492188 49.976562 C 263.421875 49.976562 325.011719 111.566406 325.011719 187.503906 C 325.011719 254.144531 277.585938 309.722656 214.648438 322.324219 L 214.648438 332.519531 C 283.128906 319.761719 335.011719 259.675781 335.011719 187.503906 L 335.011719 187.5 Z M 148.265625 127.894531 C 146.789062 129.320312 147.867188 130.96875 150.367188 129.589844 L 169.140625 119.289062 C 170.554688 118.398438 172.089844 117.898438 173.746094 117.796875 C 187.910156 118.511719 198.785156 120.058594 206.378906 122.417969 L 204.929688 113.757812 C 197.660156 111.851562 187.492188 110.808594 174.449219 110.585938 C 170.769531 110.25 167.023438 111.777344 163.1875 115.183594 Z M 175.59375 125.179688 C 172.769531 125.277344 170.375 126.082031 168.421875 127.59375 L 150.171875 141.644531 C 147.183594 143.871094 149.304688 146.632812 152.265625 144.71875 L 173.757812 134.152344 C 175.398438 133.472656 177.019531 133.175781 178.625 133.238281 C 189.382812 133.761719 199.542969 134.8125 209.140625 136.359375 L 207.292969 127.640625 C 200.011719 126.203125 189.453125 125.378906 175.59375 125.179688 Z M 171.097656 141.789062 L 152.835938 155.839844 C 149.847656 158.078125 151.984375 160.839844 154.941406 158.925781 L 176.4375 148.347656 C 178.066406 147.667969 179.699219 147.359375 181.300781 147.433594 C 192.054688 147.957031 202.214844 149.003906 211.8125 150.5625 L 209.964844 141.84375 C 202.683594 140.410156 192.121094 139.585938 178.273438 139.386719 C 175.449219 139.472656 173.0625 140.277344 171.097656 141.789062 Z M 180.945312 153.582031 C 178.125 153.679688 175.722656 154.480469 173.769531 155.984375 L 155.515625 170.035156 C 152.527344 172.261719 154.652344 175.035156 157.621094 173.117188 L 179.109375 162.554688 C 180.75 161.875 182.371094 161.5625 183.972656 161.640625 C 194.734375 162.152344 204.898438 163.199219 214.496094 164.757812 L 212.636719 156.039062 C 205.355469 154.605469 194.800781 153.78125 180.945312 153.582031 Z M 183.625 167.773438 C 180.800781 167.875 178.402344 168.675781 176.441406 170.191406 L 158.195312 184.238281 C 155.207031 186.46875 157.332031 189.226562 160.289062 187.3125 L 181.78125 176.746094 C 183.421875 176.070312 185.046875 175.769531 186.648438 175.824219 C 197.40625 176.359375 207.570312 177.394531 217.15625 178.953125 L 215.320312 170.234375 C 208.027344 168.800781 197.472656 167.976562 183.621094 167.773438 Z M 226.941406 193.90625 L 244.632812 196.953125 C 249.351562 198.746094 253.347656 190.542969 244.019531 188.75 L 225.726562 185.464844 Z M 186.304688 181.96875 C 183.472656 182.070312 181.082031 182.871094 179.113281 184.386719 L 160.867188 198.433594 C 157.878906 200.671875 160.015625 203.421875 162.96875 201.507812 L 184.457031 190.941406 C 186.09375 190.265625 187.71875 189.964844 189.324219 190.019531 C 200.078125 190.550781 210.253906 191.597656 219.828125 193.160156 L 217.992188 184.429688 C 210.710938 182.992188 200.144531 182.179688 186.304688 181.96875 Z M 224.269531 179.699219 L 241.960938 182.761719 C 246.679688 184.539062 250.675781 176.335938 241.347656 174.542969 L 223.035156 171.269531 Z M 221.609375 165.503906 L 239.289062 168.554688 C 244.007812 170.347656 247.992188 162.140625 238.664062 160.351562 L 220.363281 157.074219 Z M 218.914062 151.296875 L 236.617188 154.371094 C 241.324219 156.152344 245.324219 147.945312 235.992188 146.15625 L 217.691406 142.878906 Z M 216.242188 137.101562 L 233.945312 140.164062 C 238.652344 141.945312 242.648438 133.75 233.320312 131.960938 L 215.019531 128.6875 Z M 170.675781 253.421875 L 170.675781 253.433594 C 184.585938 249.214844 191.910156 237.667969 192.667969 218.796875 C 192.273438 210.914062 200.5 211.195312 200.367188 218.6875 C 201.535156 231.878906 199.277344 242.546875 193.589844 250.648438 C 203.863281 246.921875 208.9375 236.957031 208.804688 220.746094 C 207.226562 211.070312 217.289062 211.226562 216.710938 220.746094 C 217.578125 232.023438 215.074219 241.988281 209.207031 250.648438 C 219.492188 245.582031 224.28125 235.585938 223.589844 220.644531 C 222.476562 213.285156 231.40625 212.105469 231.515625 220.546875 C 232.242188 233.839844 229.871094 243.703125 224.425781 250.136719 C 234.703125 244.113281 239.488281 234.382812 238.808594 220.945312 C 238.054688 213.609375 246.546875 214.355469 246.925781 221.984375 C 248.371094 233.179688 244.875 243.503906 236.449219 252.910156 C 252.492188 244.695312 258.371094 230.03125 254.074219 208.933594 C 234.335938 204.480469 209.90625 203.710938 180.828125 206.664062 C 184.640625 230.964844 181.261719 246.539062 170.675781 253.421875 Z M 178.527344 308.761719 C 187.613281 307.550781 192.328125 303.976562 192.667969 298.03125 L 192.667969 278.714844 C 196.609375 274.675781 200.199219 274.742188 203.460938 278.917969 L 203.460938 297.929688 C 203.292969 302.40625 201.324219 305.601562 197.550781 307.527344 C 206.921875 307.425781 211.5 304.320312 211.265625 298.242188 L 211.265625 276.566406 C 207.914062 268.074219 189.195312 267.414062 184.640625 276.867188 L 184.640625 298.753906 C 184.40625 301.527344 182.359375 304.855469 178.527344 308.761719 Z M 186.472656 360.421875 C 186.472656 361.957031 186.550781 363.804688 186.484375 364.984375 C 186.828125 364.984375 187.15625 364.996094 187.492188 364.996094 C 190.613281 364.996094 193.710938 364.917969 196.78125 364.75 L 196.78125 313.539062 L 186.472656 313.539062 Z M 202.78125 364.328125 C 293.640625 356.578125 364.992188 280.363281 364.992188 187.503906 C 364.992188 89.488281 285.511719 9.996094 187.492188 9.996094 C 89.476562 9.996094 9.996094 89.488281 9.996094 187.503906 C 10 280.140625 81.003906 356.214844 171.542969 364.285156 L 171.542969 312.25 C 166.175781 310.121094 162.324219 307.261719 159.980469 303.6875 C 147.570312 301.339844 146.464844 286.742188 155.15625 280.664062 L 155.15625 267.816406 C 135.167969 266.679688 124.050781 255.625 121.773438 234.652344 L 121.394531 231.757812 L 134.0625 223.652344 C 135.738281 222.574219 136.242188 220.3125 135.15625 218.621094 C 134.074219 216.9375 131.828125 216.4375 130.132812 217.519531 L 120.382812 223.761719 C 120.074219 221.402344 119.792969 219.066406 119.511719 216.761719 L 131.699219 208.957031 C 133.378906 207.863281 133.871094 205.617188 132.800781 203.925781 C 131.714844 202.242188 129.457031 201.742188 127.773438 202.820312 L 118.5625 208.722656 C 118.304688 206.574219 118.070312 204.457031 117.832031 202.355469 L 130.664062 194.136719 C 132.34375 193.058594 132.84375 190.796875 131.765625 189.105469 C 130.683594 187.425781 128.425781 186.9375 126.746094 188.015625 L 116.96875 194.273438 C 116.714844 191.921875 116.472656 189.597656 116.257812 187.300781 L 129.027344 179.132812 C 130.703125 178.050781 131.203125 175.792969 130.121094 174.109375 C 129.042969 172.425781 126.78125 171.929688 125.101562 173.007812 L 115.484375 179.164062 C 115.265625 176.714844 115.050781 174.3125 114.855469 171.9375 L 127.734375 163.6875 C 129.421875 162.609375 129.917969 160.351562 128.835938 158.667969 C 127.761719 156.988281 125.503906 156.484375 123.8125 157.566406 L 114.21875 163.710938 C 114.03125 161.296875 113.867188 158.925781 113.722656 156.609375 L 126.09375 148.679688 C 127.785156 147.613281 128.273438 145.34375 127.195312 143.660156 C 126.113281 141.980469 123.847656 141.480469 122.167969 142.558594 L 113.25 148.269531 L 113.222656 147.570312 C 112.300781 138.460938 113.363281 131.257812 116.40625 125.992188 C 122.679688 114.238281 134.636719 102.691406 152.269531 91.335938 C 155.757812 88.195312 159.507812 86.269531 163.554688 85.589844 C 166.984375 85.222656 171.269531 85.179688 176.4375 85.492188 C 196.429688 87.136719 213.414062 90.699219 227.398438 96.179688 C 235.683594 99.171875 240.800781 104.417969 242.730469 111.898438 C 245.324219 121.117188 247.648438 130.132812 249.707031 138.941406 L 260.25 202.753906 C 264.113281 222.113281 261.910156 237.335938 253.617188 248.390625 C 250.175781 252.128906 245.121094 255.660156 238.398438 258.988281 C 231.832031 262.429688 224.558594 265.421875 216.566406 267.960938 L 216.566406 302.363281 C 216.1875 309.03125 211.589844 312.75 202.78125 313.484375 Z M 162.675781 279.785156 C 175.976562 285.238281 173.652344 300.667969 162.167969 303.273438 C 167.585938 304.175781 171.804688 302.664062 174.832031 298.710938 C 176.75 295.691406 177.289062 292.152344 176.476562 288.101562 C 174.4375 282.042969 169.832031 279.285156 162.675781 279.785156 Z M 169.808594 104.460938 C 197.339844 104.550781 219.871094 108.492188 237.441406 116.308594 C 235.792969 108.722656 230.75 103.726562 222.277344 101.320312 C 211.476562 96.890625 196.097656 93.917969 176.109375 92.414062 C 170.417969 91.601562 165.449219 92.070312 161.222656 93.816406 C 140.898438 104.160156 127.367188 117.386719 120.613281 133.484375 C 132.339844 116.394531 145.558594 105.808594 160.289062 101.734375 C 165.019531 100.363281 168.191406 101.265625 169.808594 104.460938 Z M 231.648438 127.851562 C 236.359375 129.945312 240.378906 122.019531 231.050781 119.589844 L 212.726562 115.082031 L 213.960938 123.585938 Z M 375 187.503906 C 375 83.976562 291.035156 0 187.492188 0 C 83.964844 0 0 83.976562 0 187.503906 C 0 291.027344 83.964844 374.996094 187.492188 374.996094 C 291.035156 374.996094 375 291.03125 375 187.503906 Z M 187.492188 29.992188 C 100.519531 29.992188 29.980469 100.53125 29.980469 187.503906 C 29.980469 264.988281 85.964844 329.414062 159.675781 342.566406 L 159.675781 352.695312 C 80.421875 339.433594 19.992188 270.511719 19.992188 187.503906 C 19.996094 95.007812 95.003906 19.996094 187.492188 19.996094 C 279.992188 19.996094 354.992188 95.007812 354.992188 187.503906 C 354.996094 270.757812 294.238281 339.824219 214.648438 352.796875 L 214.648438 342.675781 C 288.683594 329.804688 345.007812 265.210938 345.007812 187.503906 C 345.007812 100.53125 274.46875 29.992188 187.488281 29.992188 Z M 187.492188 29.992188 " fill-opacity="1" fill-rule="evenodd"/></svg>